<svg width="32" height="32" viewBox="0 0 32 32" fill="none" xmlns="http://www.w3.org/2000/svg">
<path d="M30.3735 13.8267C30.248 13.672 30.0894 13.5474 29.9095 13.462C29.7295 13.3766 29.5327 13.3327 29.3335 13.3334H26.6668V12C26.6668 10.9392 26.2454 9.92175 25.4953 9.1716C24.7451 8.42146 23.7277 8.00003 22.6668 8.00003H14.2935L13.8668 6.6667C13.5902 5.88434 13.0772 5.20737 12.3987 4.72958C11.7202 4.25179 10.91 3.99683 10.0802 4.00003H5.3335C4.27263 4.00003 3.25521 4.42146 2.50507 5.1716C1.75492 5.92175 1.3335 6.93916 1.3335 8.00003V24C1.3335 25.0609 1.75492 26.0783 2.50507 26.8285C3.25521 27.5786 4.27263 28 5.3335 28H24.5335C25.4418 27.9974 26.3221 27.6857 27.0297 27.1162C27.7373 26.5468 28.23 25.7534 28.4268 24.8667L30.6668 14.96C30.7074 14.7613 30.702 14.5558 30.6512 14.3594C30.6004 14.1631 30.5054 13.9808 30.3735 13.8267ZM7.16016 24.2934C7.09243 24.5941 6.92255 24.8621 6.67945 25.0518C6.43635 25.2414 6.13505 25.3409 5.82683 25.3334H5.3335C4.97987 25.3334 4.64074 25.1929 4.39069 24.9428C4.14064 24.6928 4.00016 24.3537 4.00016 24V8.00003C4.00016 7.64641 4.14064 7.30727 4.39069 7.05722C4.64074 6.80717 4.97987 6.6667 5.3335 6.6667H10.0802C10.3709 6.65152 10.6586 6.73193 10.8994 6.89565C11.1402 7.05937 11.3207 7.29739 11.4135 7.57336L12.1335 9.76003C12.2191 10.0144 12.3794 10.237 12.5935 10.3987C12.8076 10.5605 13.0655 10.6539 13.3335 10.6667H22.6668C23.0205 10.6667 23.3596 10.8072 23.6096 11.0572C23.8597 11.3073 24.0002 11.6464 24.0002 12V13.3334H10.6668C10.3586 13.3258 10.0573 13.4253 9.81421 13.615C9.57111 13.8046 9.40123 14.0726 9.3335 14.3734L7.16016 24.2934ZM25.8268 24.2934C25.7591 24.5941 25.5892 24.8621 25.3461 25.0518C25.103 25.2414 24.8017 25.3409 24.4935 25.3334H9.6135C9.68236 25.1848 9.73166 25.0279 9.76016 24.8667L11.7335 16H27.7335L25.8268 24.2934Z" fill="white"/>
</svg>
