<svg width="133" height="32" viewBox="0 0 133 32" fill="none" xmlns="http://www.w3.org/2000/svg">
<g id="logo">
<path id="logo_2" fill-rule="evenodd" clip-rule="evenodd" d="M0.861173 0C0.38556 0 0 0.389247 0 0.869408V31.1306C0 31.6108 0.38556 32 0.861173 32H25.494V30.2612H1.72235V1.73882H47.5434V16.9991H49.2657V0.869408C49.2657 0.389247 48.8801 0 48.4045 0H0.861173ZM62.6532 23.5552C61.2868 23.5552 60.0477 23.2442 58.9358 22.6221C57.8373 22 56.9733 21.1412 56.3437 20.0457C55.7141 18.9503 55.3993 17.7263 55.3993 16.3739C55.3993 15.0215 55.7141 13.7976 56.3437 12.7021C56.9733 11.6067 57.8373 10.7479 58.9358 10.1258C60.0477 9.50366 61.2868 9.19261 62.6532 9.19261C64.0196 9.19261 65.2587 9.50366 66.3706 10.1258C67.4825 10.7479 68.3532 11.6067 68.9828 12.7021C69.6124 13.7976 69.9272 15.0215 69.9272 16.3739C69.9272 17.7263 69.6124 18.9503 68.9828 20.0457C68.3532 21.1412 67.4825 22 66.3706 22.6221C65.2587 23.2442 64.0196 23.5552 62.6532 23.5552ZM62.6532 22.9264C63.8856 22.9264 65.0042 22.6424 66.0089 22.0743C67.0136 21.5063 67.804 20.7219 68.38 19.7211C68.956 18.7204 69.244 17.6046 69.244 16.3739C69.244 15.1432 68.956 14.0275 68.38 13.0267C67.804 12.0259 67.0136 11.2415 66.0089 10.6735C65.0042 10.1055 63.8856 9.82148 62.6532 9.82148C61.4208 9.82148 60.3022 10.1055 59.2975 10.6735C58.3062 11.2415 57.5225 12.0259 56.9465 13.0267C56.3705 14.0275 56.0825 15.1432 56.0825 16.3739C56.0825 17.6046 56.3705 18.7204 56.9465 19.7211C57.5225 20.7219 58.3062 21.5063 59.2975 22.0743C60.3022 22.6424 61.4208 22.9264 62.6532 22.9264ZM96.3672 9.27375L91.5647 23.4741H90.8815L86.3001 10.2272L81.7387 23.4741H81.0354L76.233 9.27375H76.9564L81.3971 22.4801L85.9786 9.27375H86.6417L91.203 22.5004L95.684 9.27375H96.3672ZM113.702 23.4741V22.8452H104.88V16.5768H112.516V15.9479H104.88V9.90263H113.42V9.27375H104.197V23.4741H113.702ZM132.196 23.4741L128.72 18.5851C128.264 18.6663 127.755 18.7068 127.193 18.7068H122.993V23.4741H122.31V9.27375H127.193C128.948 9.27375 130.314 9.693 131.292 10.5315C132.283 11.3565 132.779 12.506 132.779 13.9802C132.779 15.1162 132.484 16.0696 131.895 16.8405C131.319 17.5979 130.488 18.1253 129.403 18.4228L133 23.4741H132.196ZM127.233 18.078C128.8 18.078 130.006 17.7263 130.85 17.0231C131.694 16.3063 132.116 15.292 132.116 13.9802C132.116 12.6818 131.694 11.681 130.85 10.9778C130.006 10.261 128.8 9.90263 127.233 9.90263H122.993V18.078H127.233ZM10.0298 9.67939H8.07784V23.474H10.0298V9.67939ZM15.0714 11.3939H19.7561V23.474H21.6886V11.3939H26.3734V9.67939H15.0714V11.3939ZM36.7506 9.67939C38.5204 9.67939 39.9128 10.1064 40.9278 10.9603C41.9429 11.8143 42.4504 12.9901 42.4504 14.4878C42.4504 15.9855 41.9429 17.1613 40.9278 18.0153C39.9128 18.8692 38.5204 19.2962 36.7506 19.2962H33.3736V23.474H31.4216V9.67939H36.7506ZM36.692 17.5817C37.9283 17.5817 38.8717 17.319 39.5224 16.7935C40.1731 16.2548 40.4984 15.4863 40.4984 14.4878C40.4984 13.4893 40.1731 12.7273 39.5224 12.2018C38.8717 11.6632 37.9283 11.3939 36.692 11.3939H33.3736V17.5817H36.692Z" fill="white"/>
</g>
</svg>
