<svg width="22" height="22" viewBox="0 0 22 22" fill="none" xmlns="http://www.w3.org/2000/svg">
<path d="M1.8335 6.41699L9.31801 11.6561C9.92408 12.0804 10.2271 12.2925 10.5567 12.3747C10.8479 12.4473 11.1524 12.4473 11.4436 12.3747C11.7732 12.2925 12.0762 12.0804 12.6823 11.6561L20.1668 6.41699M6.2335 18.3337H15.7668C17.307 18.3337 18.077 18.3337 18.6653 18.0339C19.1827 17.7703 19.6034 17.3496 19.8671 16.8321C20.1668 16.2439 20.1668 15.4738 20.1668 13.9337V8.06699C20.1668 6.52685 20.1668 5.75678 19.8671 5.16852C19.6034 4.65107 19.1827 4.23038 18.6653 3.96672C18.077 3.66699 17.307 3.66699 15.7668 3.66699H6.2335C4.69335 3.66699 3.92328 3.66699 3.33502 3.96672C2.81758 4.23038 2.39688 4.65107 2.13323 5.16852C1.8335 5.75678 1.8335 6.52685 1.8335 8.06699V13.9337C1.8335 15.4738 1.8335 16.2439 2.13323 16.8321C2.39688 17.3496 2.81758 17.7703 3.33502 18.0339C3.92328 18.3337 4.69335 18.3337 6.2335 18.3337Z" stroke="#727272" stroke-width="1.5" stroke-linecap="round" stroke-linejoin="round"/>
</svg>
