<svg width="20" height="20" viewBox="0 0 20 20" fill="none" xmlns="http://www.w3.org/2000/svg">
<path fill-rule="evenodd" clip-rule="evenodd" d="M7.61044 7.14421C7.61212 7.14782 7.61403 7.15191 7.61621 7.15655C7.62391 7.1729 7.63296 7.19177 7.64542 7.21771C8.17238 8.31528 8.86345 9.35209 9.75576 10.2444C10.6481 11.1367 11.6849 11.8278 12.7824 12.3547C12.7985 12.3625 12.8119 12.3689 12.8236 12.3745C12.8308 12.3779 12.8374 12.381 12.8436 12.3839C12.8482 12.3861 12.8523 12.388 12.8559 12.3897C12.8616 12.3843 12.8683 12.3777 12.8766 12.3695C12.8923 12.354 12.9104 12.3359 12.934 12.3123C12.9513 12.295 12.9685 12.2778 12.9855 12.2607C13.2154 12.0305 13.4162 11.8293 13.6335 11.688C14.4441 11.161 15.4892 11.161 16.2998 11.688C16.5172 11.8293 16.7179 12.0305 16.9478 12.2607C16.9648 12.2778 16.982 12.295 16.9993 12.3123L17.1565 12.4694C17.1828 12.4958 17.2089 12.5218 17.2348 12.5477C17.5847 12.8966 17.8914 13.2025 18.0699 13.5553C18.4209 14.2494 18.4209 15.0691 18.0699 15.7631C17.8914 16.116 17.5847 16.4219 17.2348 16.7708C17.2089 16.7966 17.1828 16.8227 17.1565 16.849L17.0294 16.9761C17.0106 16.9949 16.9921 17.0134 16.9737 17.0318C16.5997 17.4063 16.3095 17.6967 15.9175 17.9169C15.47 18.1683 14.8283 18.3352 14.3151 18.3336C13.8664 18.3323 13.5387 18.2392 13.1209 18.1204C13.1056 18.1161 13.0901 18.1117 13.0745 18.1072C10.4834 17.3718 8.09625 15.9419 6.07725 13.9229C4.05825 11.9039 2.62835 9.51675 1.89291 6.92562C1.88849 6.91003 1.88409 6.89458 1.87973 6.87924C1.761 6.46149 1.66785 6.13377 1.66651 5.68504C1.66499 5.17182 1.83187 4.53011 2.08322 4.08266C2.30343 3.69066 2.59391 3.40049 2.96837 3.02643C2.98673 3.00809 3.00529 2.98955 3.02405 2.97079L3.15114 2.8437C3.17747 2.81737 3.20353 2.79124 3.22936 2.76534C3.5783 2.41546 3.88419 2.10874 4.23704 1.93028C4.77289 1.65925 5.3835 1.59751 5.95332 1.74488L5.95603 1.74558L5.96472 1.7479C5.97167 1.74979 5.99024 1.7549 6.01349 1.76276C6.04023 1.7718 6.06727 1.78244 6.09441 1.79488C6.1024 1.79854 6.10974 1.80206 6.11616 1.80523C6.1229 1.80816 6.13742 1.81443 6.16339 1.82526C6.23207 1.85392 6.32357 1.90184 6.37585 1.92973C6.42813 1.95762 6.51889 2.00692 6.58094 2.04801C6.72672 2.14453 6.79601 2.20557 6.8818 2.28188L7.65244 2.96744C7.66455 2.97822 7.67635 2.98934 7.68782 3.00081C7.70517 3.01816 7.72237 3.03534 7.73942 3.05235C7.96969 3.28222 8.17083 3.48299 8.31213 3.70032C8.83919 4.51096 8.83919 5.55601 8.31213 6.36665C8.17083 6.58398 7.96969 6.78476 7.73942 7.01462C7.72237 7.03164 7.70517 7.04881 7.68782 7.06616C7.66422 7.08976 7.64618 7.10781 7.63063 7.12356C7.62247 7.13183 7.61586 7.1386 7.61044 7.14421Z" fill="white" fill-opacity="0.16"/>
<path fill-rule="evenodd" clip-rule="evenodd" d="M5.48107 3.34634C5.31565 3.31611 5.14278 3.33988 4.98928 3.41752C4.90809 3.45859 4.80443 3.54744 4.32965 4.02221L4.20256 4.1493C3.75008 4.60179 3.63142 4.72962 3.53631 4.89893C3.42581 5.09565 3.3325 5.45444 3.33317 5.68008C3.33377 5.88072 3.36287 6.00064 3.49624 6.47054C4.14906 8.77055 5.42431 10.9129 7.25576 12.7444C9.08721 14.5758 11.2296 15.8511 13.5296 16.5039C13.9995 16.6373 14.1194 16.6664 14.3201 16.667C14.5457 16.6677 14.9045 16.5743 15.1012 16.4638C15.2705 16.3687 15.3984 16.2501 15.8509 15.7976L15.9779 15.6705C16.4527 15.1957 16.5416 15.0921 16.5826 15.0109C16.6945 14.7898 16.6945 14.5287 16.5826 14.3076C16.5416 14.2264 16.4527 14.1227 15.9779 13.648L15.8208 13.4909C15.5089 13.1789 15.4414 13.1178 15.3913 13.0853C15.1331 12.9174 14.8002 12.9174 14.542 13.0853C14.492 13.1178 14.4244 13.1789 14.1125 13.4909C14.1064 13.497 14.1 13.5034 14.0935 13.5099C14.0214 13.5823 13.9282 13.6758 13.8163 13.756C13.4169 14.0419 12.8745 14.1344 12.4029 13.9969C12.2714 13.9586 12.163 13.9064 12.0804 13.8665C12.0738 13.8633 12.0673 13.8602 12.0611 13.8572C10.8212 13.2619 9.6224 12.4681 8.57725 11.4229C7.5321 10.3778 6.73823 9.17893 6.14295 7.93908C6.13994 7.9328 6.13683 7.92636 6.13364 7.91975C6.0938 7.83712 6.04156 7.72878 6.00321 7.59722C5.86574 7.12563 5.95823 6.58324 6.2442 6.18386C6.32436 6.07192 6.41789 5.97875 6.49029 5.90661C6.49681 5.90012 6.50316 5.8938 6.50931 5.88765C6.82125 5.57571 6.88232 5.50818 6.91484 5.45817C7.08273 5.19994 7.08273 4.86704 6.91484 4.60881C6.88293 4.55973 6.82351 4.49377 6.52645 4.19647L5.77403 3.52713C5.73477 3.4922 5.72477 3.48359 5.71512 3.4759C5.7095 3.47142 5.69831 3.46273 5.66924 3.44327L5.65451 3.43479C5.63744 3.42514 5.61524 3.41297 5.59139 3.40025C5.56754 3.38752 5.54507 3.37586 5.52755 3.36706L5.51185 3.35933C5.5007 3.35466 5.49047 3.35035 5.48107 3.34634ZM5.36145 3.29109L5.35273 3.28646L5.35442 3.28737C5.35597 3.28821 5.35839 3.28949 5.36145 3.29109ZM7.61044 7.14421C7.61212 7.14782 7.61403 7.15191 7.61621 7.15655C7.62391 7.1729 7.63296 7.19177 7.64542 7.21771C8.17238 8.31528 8.86345 9.35209 9.75576 10.2444C10.6481 11.1367 11.6849 11.8278 12.7824 12.3547C12.7985 12.3625 12.8119 12.3689 12.8236 12.3745C12.8308 12.3779 12.8374 12.381 12.8436 12.3839C12.8482 12.3861 12.8523 12.388 12.8559 12.3897C12.8616 12.3843 12.8683 12.3777 12.8766 12.3695C12.8923 12.354 12.9104 12.3359 12.934 12.3123C12.9513 12.295 12.9685 12.2778 12.9855 12.2607C13.2154 12.0305 13.4162 11.8293 13.6335 11.688C14.4441 11.161 15.4892 11.161 16.2998 11.688C16.5172 11.8293 16.7179 12.0305 16.9478 12.2607C16.9648 12.2778 16.982 12.295 16.9993 12.3123L17.1565 12.4694C17.1828 12.4958 17.2089 12.5218 17.2348 12.5477C17.5847 12.8966 17.8914 13.2025 18.0699 13.5553C18.4209 14.2494 18.4209 15.0691 18.0699 15.7631C17.8914 16.116 17.5847 16.4219 17.2348 16.7708C17.2089 16.7966 17.1828 16.8227 17.1565 16.849L17.0294 16.9761C17.0106 16.9949 16.9921 17.0134 16.9737 17.0318C16.5997 17.4063 16.3095 17.6967 15.9175 17.9169C15.47 18.1683 14.8283 18.3352 14.3151 18.3336C13.8664 18.3323 13.5387 18.2392 13.1209 18.1204C13.1056 18.1161 13.0901 18.1117 13.0745 18.1072C10.4834 17.3718 8.09625 15.9419 6.07725 13.9229C4.05825 11.9039 2.62835 9.51675 1.89291 6.92562C1.88849 6.91003 1.88409 6.89458 1.87973 6.87924C1.761 6.46149 1.66785 6.13377 1.66651 5.68504C1.66499 5.17182 1.83187 4.53011 2.08322 4.08266C2.30343 3.69066 2.59391 3.40049 2.96837 3.02643C2.98673 3.00809 3.00529 2.98955 3.02405 2.97079L3.15114 2.8437C3.17747 2.81737 3.20353 2.79124 3.22936 2.76534C3.5783 2.41546 3.88419 2.10874 4.23704 1.93028C4.77289 1.65925 5.3835 1.59751 5.95332 1.74488L5.95603 1.74558L5.96472 1.7479C5.97167 1.74979 5.99024 1.7549 6.01349 1.76276C6.04023 1.7718 6.06727 1.78244 6.09441 1.79488C6.1024 1.79854 6.10974 1.80206 6.11616 1.80523C6.1229 1.80816 6.13742 1.81443 6.16339 1.82526C6.23207 1.85392 6.32357 1.90184 6.37585 1.92973C6.42813 1.95762 6.51889 2.00692 6.58094 2.04801C6.72672 2.14453 6.79601 2.20557 6.8818 2.28188L7.65244 2.96744C7.66455 2.97822 7.67635 2.98934 7.68782 3.00081C7.70517 3.01816 7.72237 3.03534 7.73942 3.05235C7.96969 3.28222 8.17083 3.48299 8.31213 3.70032C8.83919 4.51096 8.83919 5.55601 8.31213 6.36665C8.17083 6.58398 7.96969 6.78476 7.73942 7.01462C7.72237 7.03164 7.70517 7.04881 7.68782 7.06616C7.66422 7.08976 7.64618 7.10781 7.63063 7.12356C7.62247 7.13183 7.61586 7.1386 7.61044 7.14421Z" fill="#8C8F96"/>
</svg>
