<svg width="564" height="456" viewBox="0 0 564 456" fill="none" xmlns="http://www.w3.org/2000/svg">
<g opacity="0.4">
<rect y="144" width="24" height="24" rx="4" fill="#1D1E21"/>
<rect x="36" y="144" width="24" height="24" rx="4" fill="#2C2E32"/>
<rect x="72" y="144" width="24" height="24" rx="4" fill="#44464A"/>
<rect x="108" y="144" width="24" height="24" rx="4" fill="#2C2E32"/>
<rect x="144" y="144" width="24" height="24" rx="4" fill="#1D1E21"/>
<rect x="180" y="144" width="24" height="24" rx="4" fill="#44464A"/>
<rect x="216" y="144" width="24" height="24" rx="4" fill="#44464A"/>
<rect x="252" y="144" width="24" height="24" rx="4" fill="#44464A"/>
<rect x="288" y="144" width="24" height="24" rx="4" fill="#1D1E21"/>
<rect x="324" y="144" width="24" height="24" rx="4" fill="#1D1E21"/>
<rect x="360" y="144" width="24" height="24" rx="4" fill="#44464A"/>
<rect x="396" y="144" width="24" height="24" rx="4" fill="#2C2E32"/>
<rect x="432" y="144" width="24" height="24" rx="4" fill="#2C2E32"/>
<rect x="468" y="144" width="24" height="24" rx="4" fill="#1D1E21"/>
<rect x="504" y="144" width="24" height="24" rx="4" fill="#1D1E21"/>
<rect x="540" y="144" width="24" height="24" rx="4" fill="#44464A"/>
</g>
<g opacity="0.4">
<rect y="252" width="24" height="24" rx="4" fill="#44464A"/>
<rect x="36" y="252" width="24" height="24" rx="4" fill="#1D1E21"/>
<rect x="72" y="252" width="24" height="24" rx="4" fill="#2C2E32"/>
<rect x="108" y="252" width="24" height="24" rx="4" fill="#44464A"/>
<rect x="144" y="252" width="24" height="24" rx="4" fill="#2C2E32"/>
<rect x="180" y="252" width="24" height="24" rx="4" fill="#44464A"/>
<rect x="216" y="252" width="24" height="24" rx="4" fill="#2C2E32"/>
<rect x="252" y="252" width="24" height="24" rx="4" fill="#44464A"/>
<rect x="288" y="252" width="24" height="24" rx="4" fill="#44464A"/>
<rect x="324" y="252" width="24" height="24" rx="4" fill="#2C2E32"/>
<rect x="360" y="252" width="24" height="24" rx="4" fill="#1D1E21"/>
<rect x="396" y="252" width="24" height="24" rx="4" fill="#2C2E32"/>
<rect x="432" y="252" width="24" height="24" rx="4" fill="#2C2E32"/>
<rect x="468" y="252" width="24" height="24" rx="4" fill="#44464A"/>
</g>
<g opacity="0.4">
<rect y="216" width="24" height="24" rx="4" fill="#44464A"/>
<rect x="36" y="216" width="24" height="24" rx="4" fill="#2C2E32"/>
<rect x="72" y="216" width="24" height="24" rx="4" fill="#44464A"/>
<rect x="108" y="216" width="24" height="24" rx="4" fill="#1D1E21"/>
<rect x="144" y="216" width="24" height="24" rx="4" fill="#44464A"/>
<rect x="180" y="216" width="24" height="24" rx="4" fill="#44464A"/>
<rect x="216" y="216" width="24" height="24" rx="4" fill="#2C2E32"/>
<rect x="252" y="216" width="24" height="24" rx="4" fill="#1D1E21"/>
<rect x="288" y="216" width="24" height="24" rx="4" fill="#44464A"/>
<rect x="324" y="216" width="24" height="24" rx="4" fill="#2C2E32"/>
<rect x="360" y="216" width="24" height="24" rx="4" fill="#44464A"/>
<rect x="396" y="216" width="24" height="24" rx="4" fill="#44464A"/>
<rect x="432" y="216" width="24" height="24" rx="4" fill="#2C2E32"/>
</g>
<g opacity="0.4">
<rect y="360" width="24" height="24" rx="4" fill="#44464A"/>
<rect x="36" y="360" width="24" height="24" rx="4" fill="#1D1E21"/>
<rect x="72" y="360" width="24" height="24" rx="4" fill="#44464A"/>
<rect x="108" y="360" width="24" height="24" rx="4" fill="#44464A"/>
<rect x="144" y="360" width="24" height="24" rx="4" fill="#2C2E32"/>
<rect x="180" y="360" width="24" height="24" rx="4" fill="#2C2E32"/>
<rect x="216" y="360" width="24" height="24" rx="4" fill="#44464A"/>
<rect x="252" y="360" width="24" height="24" rx="4" fill="#44464A"/>
<rect x="288" y="360" width="24" height="24" rx="4" fill="#2C2E32"/>
<rect x="324" y="360" width="24" height="24" rx="4" fill="#44464A"/>
<rect x="360" y="360" width="24" height="24" rx="4" fill="#1D1E21"/>
<rect x="396" y="360" width="24" height="24" rx="4" fill="#44464A"/>
</g>
<g opacity="0.4">
<rect y="432" width="24" height="24" rx="4" fill="#2C2E32"/>
<rect x="36" y="432" width="24" height="24" rx="4" fill="#44464A"/>
<rect x="72" y="432" width="24" height="24" rx="4" fill="#1D1E21"/>
<rect x="108" y="432" width="24" height="24" rx="4" fill="#44464A"/>
<rect x="144" y="432" width="24" height="24" rx="4" fill="#44464A"/>
<rect x="180" y="432" width="24" height="24" rx="4" fill="#2C2E32"/>
<rect x="216" y="432" width="24" height="24" rx="4" fill="#1D1E21"/>
<rect x="252" y="432" width="24" height="24" rx="4" fill="#44464A"/>
<rect x="288" y="432" width="24" height="24" rx="4" fill="#1D1E21"/>
<rect x="324" y="432" width="24" height="24" rx="4" fill="#44464A"/>
<rect x="360" y="432" width="24" height="24" rx="4" fill="#2C2E32"/>
</g>
<g opacity="0.4">
<rect y="396" width="24" height="24" rx="4" fill="#1D1E21"/>
<rect x="36" y="396" width="24" height="24" rx="4" fill="#2C2E32"/>
<rect x="72" y="396" width="24" height="24" rx="4" fill="#44464A"/>
<rect x="108" y="396" width="24" height="24" rx="4" fill="#2C2E32"/>
<rect x="144" y="396" width="24" height="24" rx="4" fill="#2C2E32"/>
<rect x="180" y="396" width="24" height="24" rx="4" fill="#44464A"/>
<rect x="216" y="396" width="24" height="24" rx="4" fill="#44464A"/>
<rect x="252" y="396" width="24" height="24" rx="4" fill="#2C2E32"/>
<rect x="288" y="396" width="24" height="24" rx="4" fill="#44464A"/>
</g>
<g opacity="0.4">
<rect y="288" width="24" height="24" rx="4" fill="#2C2E32"/>
<rect x="36" y="288" width="24" height="24" rx="4" fill="#44464A"/>
<rect x="72" y="288" width="24" height="24" rx="4" fill="#2C2E32"/>
<rect x="108" y="288" width="24" height="24" rx="4" fill="#44464A"/>
<rect x="144" y="288" width="24" height="24" rx="4" fill="#2C2E32"/>
<rect x="180" y="288" width="24" height="24" rx="4" fill="#2C2E32"/>
<rect x="216" y="288" width="24" height="24" rx="4" fill="#2C2E32"/>
<rect x="252" y="288" width="24" height="24" rx="4" fill="#2C2E32"/>
</g>
<g opacity="0.4">
<rect y="324" width="24" height="24" rx="4" fill="#2C2E32"/>
<rect x="36" y="324" width="24" height="24" rx="4" fill="#1D1E21"/>
<rect x="72" y="324" width="24" height="24" rx="4" fill="#2C2E32"/>
<rect x="108" y="324" width="24" height="24" rx="4" fill="#2C2E32"/>
<rect x="144" y="324" width="24" height="24" rx="4" fill="#44464A"/>
</g>
<g opacity="0.4">
<rect y="180" width="24" height="24" rx="4" fill="#44464A"/>
<rect x="36" y="180" width="24" height="24" rx="4" fill="#18191B"/>
<rect x="72" y="180" width="24" height="24" rx="4" fill="#2C2E32"/>
<rect x="108" y="180" width="24" height="24" rx="4" fill="#44464A"/>
<rect x="144" y="180" width="24" height="24" rx="4" fill="#2C2E32"/>
<rect x="180" y="180" width="24" height="24" rx="4" fill="#44464A"/>
<rect x="216" y="180" width="24" height="24" rx="4" fill="#2C2E32"/>
</g>
<g opacity="0.4">
<rect y="72" width="24" height="24" rx="4" fill="#44464A"/>
<rect x="36" y="72" width="24" height="24" rx="4" fill="#2C2E32"/>
<rect x="72" y="72" width="24" height="24" rx="4" fill="#1D1E21"/>
<rect x="108" y="72" width="24" height="24" rx="4" fill="#2C2E32"/>
<rect x="144" y="72" width="24" height="24" rx="4" fill="#2C2E32"/>
<rect x="180" y="72" width="24" height="24" rx="4" fill="#2C2E32"/>
</g>
<g opacity="0.4">
<rect y="108" width="24" height="24" rx="4" fill="#2C2E32"/>
<rect x="36" y="108" width="24" height="24" rx="4" fill="#44464A"/>
<rect x="72" y="108" width="24" height="24" rx="4" fill="#44464A"/>
<rect x="108" y="108" width="24" height="24" rx="4" fill="#18191B"/>
<rect x="144" y="108" width="24" height="24" rx="4" fill="#44464A"/>
</g>
<g opacity="0.4">
<rect width="24" height="24" rx="4" fill="#1D1E21"/>
<rect x="36" width="24" height="24" rx="4" fill="#44464A"/>
<rect x="72" width="24" height="24" rx="4" fill="#2C2E32"/>
<rect x="108" width="24" height="24" rx="4" fill="#1D1E21"/>
<rect x="144" width="24" height="24" rx="4" fill="#2C2E32"/>
</g>
<g opacity="0.4">
<rect y="36" width="24" height="24" rx="4" fill="#18191B"/>
<rect x="36" y="36" width="24" height="24" rx="4" fill="#2C2E32"/>
<rect x="72" y="36" width="24" height="24" rx="4" fill="#44464A"/>
</g>
</svg>
