<svg width="22" height="22" viewBox="0 0 22 22" fill="none" xmlns="http://www.w3.org/2000/svg">
<g clip-path="url(#clip0_856_543)">
<path d="M11 22C17.0751 22 22 17.0751 22 11C22 4.92487 17.0751 0 11 0C4.92487 0 0 4.92487 0 11C0 17.0751 4.92487 22 11 22Z" fill="url(#paint0_linear_856_543)"/>
<path d="M7.4458 11.8046L8.75086 15.4168C8.75086 15.4168 8.91403 15.7547 9.08874 15.7547C9.26346 15.7547 11.8621 13.0513 11.8621 13.0513L14.7519 7.46973L7.49237 10.8721L7.4458 11.8046Z" fill="#C8DAEA"/>
<path d="M9.1763 12.7305L8.92577 15.393C8.92577 15.393 8.82091 16.2089 9.63656 15.393C10.4522 14.5772 11.2329 13.9481 11.2329 13.9481" fill="#A9C6D8"/>
<path d="M7.46945 11.9333L4.7849 11.0586C4.7849 11.0586 4.46406 10.9284 4.56737 10.6332C4.58864 10.5724 4.63154 10.5206 4.75987 10.4316C5.3547 10.017 15.7696 6.27358 15.7696 6.27358C15.7696 6.27358 16.0637 6.17449 16.2371 6.24039C16.28 6.25367 16.3186 6.27812 16.349 6.31121C16.3793 6.34431 16.4003 6.38488 16.4099 6.42877C16.4286 6.50629 16.4365 6.58604 16.4332 6.66573C16.4323 6.73466 16.424 6.79855 16.4177 6.89874C16.3542 7.9222 14.456 15.5606 14.456 15.5606C14.456 15.5606 14.3424 16.0076 13.9355 16.0229C13.8355 16.0261 13.7359 16.0092 13.6426 15.9731C13.5493 15.937 13.4642 15.8825 13.3924 15.8128C12.5939 15.1259 9.83399 13.2711 9.22413 12.8632C9.21037 12.8538 9.19879 12.8416 9.19015 12.8274C9.18152 12.8132 9.17604 12.7972 9.17408 12.7807C9.16555 12.7377 9.2123 12.6845 9.2123 12.6845C9.2123 12.6845 14.018 8.4128 14.1459 7.96437C14.1558 7.92963 14.1184 7.91249 14.0682 7.9277C13.749 8.04513 8.2158 11.5394 7.60511 11.925C7.56115 11.9383 7.51469 11.9411 7.46945 11.9333Z" fill="white"/>
</g>
<defs>
<linearGradient id="paint0_linear_856_543" x1="11" y1="22" x2="11" y2="0" gradientUnits="userSpaceOnUse">
<stop stop-color="#1D93D2"/>
<stop offset="1" stop-color="#38B0E3"/>
</linearGradient>
<clipPath id="clip0_856_543">
<rect width="22" height="22" fill="white"/>
</clipPath>
</defs>
</svg>
