<svg width="22" height="16" viewBox="0 0 22 16" fill="none" xmlns="http://www.w3.org/2000/svg">
<mask id="mask0_680_238" style="mask-type:luminance" maskUnits="userSpaceOnUse" x="0" y="0" width="22" height="16">
<rect width="22" height="16" fill="white"/>
</mask>
<g mask="url(#mask0_680_238)">
<path fill-rule="evenodd" clip-rule="evenodd" d="M0 0H22V16H0V0Z" fill="#E31D1C"/>
<path fill-rule="evenodd" clip-rule="evenodd" d="M0 1.33301V2.66634H22V1.33301H0ZM0 3.99967V5.33301H22V3.99967H0ZM0 7.99967V6.66634H22V7.99967H0ZM0 9.33301V10.6663H22V9.33301H0ZM0 13.333V11.9997H22V13.333H0ZM0 15.9997V14.6663H22V15.9997H0Z" fill="#F7FCFF"/>
<rect width="12.375" height="9.33333" fill="#2E42A5"/>
<path fill-rule="evenodd" clip-rule="evenodd" d="M1.42998 2.89866L2.15862 2.40648L2.72383 2.80106H2.40381L3.05098 3.35612L2.83239 4.13439H2.49003L2.1576 3.4196L1.8741 4.13439H1.02881L1.67598 4.68945L1.42998 5.56532L2.15862 5.07315L2.72383 5.46772H2.40381L3.05098 6.02279L2.83239 6.80106H2.49003L2.1576 6.08626L1.8741 6.80106H1.02881L1.67598 7.35612L1.42998 8.23199L2.15862 7.73981L2.86363 8.23199L2.64444 7.35612L3.21062 6.80106H2.94947L3.53362 6.40648L4.09883 6.80106H3.77881L4.42598 7.35612L4.17998 8.23199L4.90862 7.73981L5.61363 8.23199L5.39444 7.35612L5.96062 6.80106H5.69947L6.28362 6.40648L6.84883 6.80106H6.52881L7.17598 7.35612L6.92998 8.23199L7.65862 7.73981L8.36363 8.23199L8.14444 7.35612L8.71062 6.80106H8.44947L9.03362 6.40648L9.59883 6.80106H9.27881L9.92598 7.35612L9.67998 8.23199L10.4086 7.73981L11.1136 8.23199L10.8944 7.35612L11.4606 6.80106H10.74L10.4076 6.08626L10.1241 6.80106H9.71421L9.51944 6.02279L10.0856 5.46772H9.82447L10.4086 5.07315L11.1136 5.56532L10.8944 4.68945L11.4606 4.13439H10.74L10.4076 3.4196L10.1241 4.13439H9.71421L9.51944 3.35612L10.0856 2.80106H9.82447L10.4086 2.40648L11.1136 2.89866L10.8944 2.02279L11.4606 1.46772H10.74L10.4076 0.75293L10.1241 1.46772H9.27881L9.92598 2.02279L9.70739 2.80106H9.36503L9.0326 2.08626L8.7491 2.80106H8.33921L8.14444 2.02279L8.71062 1.46772H7.99003L7.6576 0.75293L7.3741 1.46772H6.52881L7.17598 2.02279L6.95739 2.80106H6.61503L6.2826 2.08626L5.9991 2.80106H5.58921L5.39444 2.02279L5.96062 1.46772H5.24003L4.9076 0.75293L4.6241 1.46772H3.77881L4.42598 2.02279L4.20739 2.80106H3.86503L3.5326 2.08626L3.2491 2.80106H2.83921L2.64444 2.02279L3.21062 1.46772H2.49003L2.1576 0.75293L1.8741 1.46772H1.02881L1.67598 2.02279L1.42998 2.89866ZM9.70739 5.46772L9.92598 4.68945L9.27881 4.13439H9.59883L9.03362 3.73981L8.44947 4.13439H8.71062L8.14444 4.68945L8.33921 5.46772H8.7491L9.0326 4.75293L9.36503 5.46772H9.70739ZM8.22383 5.46772L7.65862 5.07315L7.07447 5.46772H7.33562L6.76944 6.02279L6.96421 6.80106H7.3741L7.6576 6.08626L7.99003 6.80106H8.33239L8.55098 6.02279L7.90381 5.46772H8.22383ZM5.80098 6.02279L5.58239 6.80106H5.24003L4.9076 6.08626L4.6241 6.80106H4.21421L4.01944 6.02279L4.58562 5.46772H4.32447L4.90862 5.07315L5.47383 5.46772H5.15381L5.80098 6.02279ZM5.9991 5.46772H5.58921L5.39444 4.68945L5.96062 4.13439H5.69947L6.28362 3.73981L6.84883 4.13439H6.52881L7.17598 4.68945L6.95739 5.46772H6.61503L6.2826 4.75293L5.9991 5.46772ZM4.20739 5.46772L4.42598 4.68945L3.77881 4.13439H4.09883L3.53362 3.73981L2.94947 4.13439H3.21062L2.64444 4.68945L2.83921 5.46772H3.2491L3.5326 4.75293L3.86503 5.46772H4.20739ZM8.55098 3.35612L8.33239 4.13439H7.99003L7.6576 3.4196L7.3741 4.13439H6.96421L6.76944 3.35612L7.33562 2.80106H7.07447L7.65862 2.40648L8.22383 2.80106H7.90381L8.55098 3.35612ZM5.47383 2.80106L4.90862 2.40648L4.32447 2.80106H4.58562L4.01944 3.35612L4.21421 4.13439H4.6241L4.9076 3.4196L5.24003 4.13439H5.58239L5.80098 3.35612L5.15381 2.80106H5.47383Z" fill="#F7FCFF"/>
</g>
</svg>
