<svg width="30" height="30" viewBox="0 0 30 30" fill="none" xmlns="http://www.w3.org/2000/svg">
<path d="M17.7332 7.00033C19.0355 7.25441 20.2324 7.89133 21.1706 8.82957C22.1089 9.76781 22.7458 10.9647 22.9999 12.267M17.7332 1.66699C20.4389 1.96757 22.962 3.17923 24.8882 5.103C26.8144 7.02678 28.0292 9.54834 28.3332 12.2537M12.6358 17.4844C11.0337 15.8823 9.76869 14.0708 8.84069 12.138C8.76087 11.9717 8.72096 11.8886 8.6903 11.7834C8.58133 11.4096 8.6596 10.9506 8.88628 10.634C8.95007 10.5449 9.02628 10.4687 9.1787 10.3163C9.64484 9.85016 9.87791 9.61709 10.0303 9.38272C10.6049 8.49886 10.6049 7.35942 10.0303 6.47557C9.87791 6.2412 9.64484 6.00813 9.1787 5.54198L8.91887 5.28216C8.21028 4.57357 7.85598 4.21927 7.47548 4.02681C6.71873 3.64405 5.82504 3.64405 5.06829 4.02681C4.68779 4.21927 4.33349 4.57357 3.6249 5.28216L3.41472 5.49234C2.70856 6.1985 2.35548 6.55158 2.08581 7.03163C1.78658 7.5643 1.57144 8.39162 1.57325 9.00259C1.57489 9.55318 1.6817 9.92948 1.89531 10.6821C3.04327 14.7266 5.20923 18.5431 8.39321 21.7271C11.5772 24.911 15.3937 27.077 19.4382 28.225C20.1908 28.4386 20.5671 28.5454 21.1177 28.547C21.7286 28.5488 22.556 28.3337 23.0886 28.0345C23.5687 27.7648 23.9218 27.4117 24.6279 26.7055L24.8381 26.4954C25.5467 25.7868 25.901 25.4325 26.0934 25.052C26.4762 24.2952 26.4762 23.4015 26.0934 22.6448C25.901 22.2643 25.5467 21.91 24.8381 21.2014L24.5783 20.9416C24.1121 20.4754 23.8791 20.2424 23.6447 20.09C22.7608 19.5153 21.6214 19.5153 20.7375 20.09C20.5032 20.2424 20.2701 20.4754 19.804 20.9416C19.6515 21.094 19.5753 21.1702 19.4863 21.234C19.1697 21.4607 18.7107 21.5389 18.3369 21.43C18.2317 21.3993 18.1486 21.3594 17.9823 21.2796C16.0495 20.3516 14.238 19.0865 12.6358 17.4844Z" stroke="white" stroke-width="2" stroke-linecap="round" stroke-linejoin="round"/>
</svg>
