<svg width="24" height="30" viewBox="0 0 24 30" fill="none" xmlns="http://www.w3.org/2000/svg">
<path d="M11.6667 2.33381V27.6671M22.3333 15.0005C22.3333 21.5451 15.1947 26.305 12.5973 27.8203C12.3021 27.9925 12.1545 28.0786 11.9462 28.1233C11.7846 28.158 11.5487 28.158 11.3871 28.1233C11.1788 28.0786 11.0312 27.9925 10.736 27.8203C8.13862 26.305 1 21.5451 1 15.0005V8.62395C1 7.55793 1 7.02492 1.17435 6.56675C1.32837 6.162 1.57864 5.80085 1.90354 5.51452C2.27133 5.1904 2.7704 5.00325 3.76854 4.62894L10.9176 1.94804C11.1948 1.8441 11.3334 1.79212 11.476 1.77152C11.6024 1.75324 11.7309 1.75324 11.8574 1.77152C11.9999 1.79212 12.1385 1.8441 12.4157 1.94804L19.5648 4.62894C20.5629 5.00325 21.062 5.1904 21.4298 5.51452C21.7547 5.80085 22.005 6.162 22.159 6.56675C22.3333 7.02492 22.3333 7.55793 22.3333 8.62395V15.0005Z" stroke="white" stroke-width="2" stroke-linecap="round" stroke-linejoin="round"/>
</svg>
