<svg width="29" height="26" viewBox="0 0 29 26" fill="none" xmlns="http://www.w3.org/2000/svg">
<path d="M27.9997 9H1.33301M6.66634 20.3333L9.99967 17L6.66634 13.6667M13.333 20.3333L18.6663 20.3333M1.33301 7.4L1.33301 18.6C1.33301 20.8402 1.33301 21.9603 1.76898 22.816C2.15248 23.5686 2.7644 24.1805 3.51705 24.564C4.37269 25 5.4928 25 7.733 25H21.5997C23.8399 25 24.96 25 25.8156 24.564C26.5683 24.1805 27.1802 23.5686 27.5637 22.816C27.9997 21.9603 27.9997 20.8402 27.9997 18.6V7.4C27.9997 5.15979 27.9997 4.03969 27.5637 3.18404C27.1802 2.43139 26.5683 1.81947 25.8156 1.43598C24.96 1 23.8399 1 21.5997 1L7.73301 1C5.4928 1 4.37269 1 3.51705 1.43597C2.7644 1.81947 2.15248 2.43139 1.76898 3.18404C1.33301 4.03968 1.33301 5.15979 1.33301 7.4Z" stroke="white" stroke-width="2" stroke-linecap="round" stroke-linejoin="round"/>
</svg>
