<svg width="32" height="32" viewBox="0 0 32 32" fill="none" xmlns="http://www.w3.org/2000/svg">
<path d="M29.3332 13.9997L28.7006 8.93919C28.4525 6.95437 28.3284 5.96193 27.8614 5.21407C27.4498 4.55517 26.8553 4.03036 26.1505 3.70373C25.3505 3.33301 24.3503 3.33301 22.35 3.33301H9.64964C7.64936 3.33301 6.64922 3.33301 5.8492 3.70373C5.14434 4.03036 4.54984 4.55517 4.13831 5.21407C3.67122 5.96193 3.54717 6.95435 3.29906 8.93919L2.6665 13.9997M7.33317 19.333H24.6665M7.33317 19.333C4.75584 19.333 2.6665 17.2437 2.6665 14.6663C2.6665 12.089 4.75584 9.99967 7.33317 9.99967H24.6665C27.2438 9.99967 29.3332 12.089 29.3332 14.6663C29.3332 17.2437 27.2438 19.333 24.6665 19.333M7.33317 19.333C4.75584 19.333 2.6665 21.4223 2.6665 23.9997C2.6665 26.577 4.75584 28.6663 7.33317 28.6663H24.6665C27.2438 28.6663 29.3332 26.577 29.3332 23.9997C29.3332 21.4223 27.2438 19.333 24.6665 19.333M7.99984 14.6663H8.01317M7.99984 23.9997H8.01317M15.9998 14.6663H23.9998M15.9998 23.9997H23.9998" stroke="white" stroke-width="2" stroke-linecap="round" stroke-linejoin="round"/>
</svg>
