<svg width="75" height="120" viewBox="0 0 75 120" fill="none" xmlns="http://www.w3.org/2000/svg">
<path d="M40.9823 0C40.9823 0 19.4013 43.6401 18.2031 64.0214C17.005 84.4028 37.3856 102.386 37.3856 102.386L42.421 98.5499C42.421 98.5499 30.9108 83.6834 33.3093 68.3375C35.7079 52.9915 42.8122 42.2014 44.579 38.1251C46.3458 34.0489 46.9768 29.493 46.9768 29.493C46.9768 29.493 48.015 20.4833 46.9768 14.8664C45.8391 8.71076 40.9823 0 40.9823 0Z" fill="url(#paint0_linear_1083_3185)"/>
<path d="M47.9352 39.324C47.9352 39.324 36.9464 56.1044 35.7064 68.3375C34.321 82.005 44.579 96.3918 44.579 96.3918C44.579 96.3918 55.1286 86.5608 55.848 70.016C56.5673 53.4711 47.9352 39.324 47.9352 39.324Z" fill="url(#paint1_linear_1083_3185)"/>
<path d="M8.23256 119.89V111.869H13.4498V113.087H9.68572V115.265H13.1796V116.483H9.68572V118.672H13.4812V119.89H8.23256Z" fill="black"/>
<path d="M27.2779 119.89L24.6379 116.385H23.9251V119.89H22.4719V111.869H23.9251V115.167H24.2893L27.1408 111.869H28.9308L25.7621 115.527L29.0679 119.89H27.2779Z" fill="black"/>
<path d="M44.9671 114.575H43.5021C43.4604 114.335 43.3833 114.122 43.2711 113.937C43.1588 113.749 43.0191 113.589 42.8519 113.459C42.6848 113.328 42.4942 113.23 42.2801 113.165C42.0686 113.097 41.8401 113.063 41.5946 113.063C41.1586 113.063 40.7721 113.173 40.4352 113.392C40.0984 113.609 39.8347 113.928 39.644 114.348C39.4534 114.766 39.3581 115.276 39.3581 115.879C39.3581 116.493 39.4534 117.01 39.644 117.431C39.8373 117.848 40.101 118.164 40.4352 118.378C40.7721 118.59 41.1572 118.696 41.5907 118.696C41.8309 118.696 42.0555 118.664 42.2644 118.602C42.4759 118.536 42.6652 118.441 42.8324 118.316C43.0021 118.19 43.1444 118.036 43.2593 117.854C43.3768 117.671 43.4578 117.462 43.5021 117.227L44.9671 117.235C44.9122 117.616 44.7934 117.974 44.6106 118.308C44.4304 118.642 44.1941 118.937 43.9017 119.193C43.6092 119.446 43.2671 119.645 42.8754 119.788C42.4838 119.929 42.049 120 41.5711 120C40.8661 120 40.2368 119.837 39.6832 119.51C39.1296 119.184 38.6935 118.713 38.375 118.096C38.0564 117.48 37.8971 116.741 37.8971 115.879C37.8971 115.015 38.0577 114.276 38.3789 113.662C38.7001 113.046 39.1374 112.575 39.691 112.249C40.2446 111.922 40.8713 111.759 41.5711 111.759C42.0177 111.759 42.4328 111.822 42.8167 111.947C43.2005 112.072 43.5426 112.256 43.8429 112.499C44.1432 112.739 44.39 113.034 44.5832 113.384C44.779 113.732 44.907 114.129 44.9671 114.575Z" fill="black"/>
<path d="M46.5184 111.869H47.9598V117.337H48.0342L51.8062 111.869H53.1105V119.89H51.6573V114.426H51.5908L47.8071 119.89H46.5184V111.869Z" fill="black"/>
<path d="M60.073 111.869V113.087H56.3677V119.89H54.9145V111.869H60.073Z" fill="black"/>
<path d="M71.5559 120C70.9918 120 70.4905 119.903 70.0518 119.71C69.6157 119.517 69.271 119.248 69.0177 118.903C68.7645 118.559 68.63 118.16 68.6143 117.709H70.087C70.1001 117.925 70.1719 118.115 70.3025 118.277C70.433 118.436 70.6067 118.56 70.8234 118.649C71.0402 118.737 71.283 118.782 71.552 118.782C71.8392 118.782 72.0938 118.732 72.3157 118.633C72.5377 118.531 72.7114 118.39 72.8367 118.21C72.962 118.03 73.0234 117.822 73.0208 117.587C73.0234 117.344 72.9607 117.13 72.8328 116.945C72.7048 116.759 72.5194 116.615 72.2766 116.51C72.0363 116.406 71.7465 116.353 71.407 116.353H70.6981V115.233H71.407C71.6864 115.233 71.9306 115.185 72.1395 115.088C72.351 114.992 72.5168 114.856 72.6369 114.681C72.757 114.503 72.8158 114.298 72.8132 114.066C72.8158 113.839 72.7649 113.642 72.6604 113.474C72.5586 113.305 72.4137 113.173 72.2257 113.079C72.0403 112.985 71.8222 112.938 71.5715 112.938C71.3261 112.938 71.0989 112.982 70.89 113.071C70.6811 113.16 70.5127 113.286 70.3847 113.451C70.2568 113.613 70.1889 113.806 70.1811 114.031H68.7827C68.7932 113.582 68.9224 113.187 69.1705 112.848C69.4212 112.506 69.7554 112.239 70.1732 112.049C70.591 111.856 71.0597 111.759 71.5794 111.759C72.1147 111.759 72.5795 111.859 72.9738 112.061C73.3707 112.259 73.6775 112.527 73.8942 112.863C74.111 113.2 74.2193 113.572 74.2193 113.98C74.222 114.432 74.0888 114.81 73.8198 115.116C73.5535 115.421 73.2036 115.621 72.7701 115.715V115.778C73.3341 115.856 73.7663 116.065 74.0666 116.404C74.3695 116.741 74.5196 117.16 74.517 117.662C74.517 118.111 74.3891 118.513 74.1332 118.868C73.8799 119.221 73.53 119.497 73.0835 119.698C72.6395 119.899 72.1303 120 71.5559 120Z" fill="black"/>
<path fill-rule="evenodd" clip-rule="evenodd" d="M29.7546 119.89H31.3057L31.9691 117.912H34.9849L35.6495 119.89H37.2006L34.3726 111.869H32.5787L29.7546 119.89ZM34.5927 116.745L33.507 113.514H33.4443L32.3606 116.745H31.3566V117.912H31.9691L32.3606 116.745H34.5927Z" fill="black"/>
<path d="M31.3566 116.745V117.912H31.9691L32.3606 116.745H31.3566Z" fill="black"/>
<path fill-rule="evenodd" clip-rule="evenodd" d="M15.153 111.869V119.89H16.6061V117.18H18.1415C18.7604 117.18 19.2813 117.066 19.7044 116.839C20.1274 116.609 20.4473 116.295 20.664 115.895C20.8807 115.496 20.9891 115.039 20.9891 114.524C20.9891 114.015 20.8807 113.561 20.664 113.161C20.4499 112.759 20.1326 112.443 19.7122 112.213C19.2944 111.983 18.7774 111.869 18.1611 111.869H15.153ZM16.6061 115.985H16.1479V117.18H16.6061V115.985ZM16.6061 115.985V113.083H17.9379C18.3008 113.083 18.5972 113.144 18.827 113.267C19.0594 113.387 19.2304 113.555 19.3401 113.772C19.4524 113.989 19.5085 114.24 19.5085 114.524C19.5085 114.809 19.4524 115.061 19.3401 115.28C19.2304 115.5 19.0607 115.672 18.8309 115.797C18.6011 115.923 18.306 115.985 17.9457 115.985H16.6061Z" fill="black"/>
<path d="M16.1479 115.985V117.18H16.6061V115.985H16.1479Z" fill="black"/>
<path fill-rule="evenodd" clip-rule="evenodd" d="M1.42182 111.869H0V114.485C0 115.088 0.122729 115.578 0.368186 115.954C0.613643 116.33 0.960939 116.607 1.41007 116.784C1.86182 116.959 2.39451 117.047 3.00816 117.047C3.17789 117.047 3.35415 117.04 3.53693 117.027C3.71972 117.014 3.90251 116.996 4.0853 116.972C4.26808 116.949 4.44173 116.92 4.60624 116.886C4.67846 116.871 4.74766 116.856 4.81384 116.839V119.89H6.24349V111.869H4.81384V115.652C4.74563 115.669 4.67383 115.684 4.59841 115.699C4.42868 115.731 4.25111 115.758 4.06571 115.782C3.88031 115.802 3.69622 115.819 3.51343 115.832C3.33326 115.843 3.16483 115.848 3.00816 115.848C2.65825 115.848 2.36579 115.805 2.13078 115.719C1.89577 115.633 1.7182 115.49 1.59808 115.292C1.48058 115.093 1.42182 114.825 1.42182 114.485V111.869ZM5.05276 115.59C4.97878 115.611 4.8991 115.632 4.81384 115.652V116.839C4.82303 116.837 4.83217 116.835 4.84125 116.832C4.91567 116.813 4.98618 116.793 5.05276 116.772V115.59Z" fill="black"/>
<path d="M5.05276 116.772V115.59C4.97878 115.611 4.8991 115.632 4.81384 115.652V116.839L4.84125 116.832C4.91567 116.813 4.98618 116.793 5.05276 116.772Z" fill="black"/>
<path fill-rule="evenodd" clip-rule="evenodd" d="M60.0322 119.89H61.5832L62.2466 117.912H65.2625L65.9271 119.89H67.4781L64.6502 111.869H62.8562L60.0322 119.89ZM64.8703 116.745L63.7845 113.514H63.7219L62.6381 116.745H61.6342V117.912H62.2466L62.6381 116.745H64.8703Z" fill="black"/>
<path d="M61.6342 116.745V117.912H62.2466L62.6381 116.745H61.6342Z" fill="black"/>
<defs>
<linearGradient id="paint0_linear_1083_3185" x1="37.2585" y1="0" x2="37.2585" y2="120" gradientUnits="userSpaceOnUse">
<stop offset="0.115" stop-color="#003266"/>
<stop offset="0.385" stop-color="#1286DB"/>
<stop offset="1" stop-color="#A9DFF9"/>
</linearGradient>
<linearGradient id="paint1_linear_1083_3185" x1="60.6035" y1="44.1218" x2="57.7592" y2="114.029" gradientUnits="userSpaceOnUse">
<stop stop-color="#003266"/>
<stop offset="0.35" stop-color="#46ABFF"/>
<stop offset="1" stop-color="#B7E8FF"/>
</linearGradient>
</defs>
</svg>
