<svg width="120" height="45" viewBox="0 0 120 45" fill="none" xmlns="http://www.w3.org/2000/svg">
<g clip-path="url(#clip0_1083_3152)">
<path d="M0 34.0368V0.602539H25.5V10.8437H10.5V34.0368H0Z" fill="#0069FF"/>
<path d="M40.5 0.602539L30.15 10.6931L30 10.8437V34.0368H40.5V0.602539Z" fill="black"/>
<path d="M84.75 34.0366V0.75293H95.0997V24.0967L105.6 24.1255V0.75293H115.95V23.9461H120V34.0366L110.1 43.8259V34.0366H84.75Z" fill="#0069FF"/>
<path d="M79.8004 17.3949C79.8004 27.0017 72.0438 34.7897 62.4754 34.7897C52.9071 34.7897 45.1504 27.0017 45.1504 17.3949C45.1504 7.78792 52.9071 0 62.4754 0C72.0438 0 79.8004 7.78792 79.8004 17.3949ZM55.5396 17.3949C55.5396 21.2409 58.6449 24.3586 62.4754 24.3586C66.3059 24.3586 69.4114 21.2409 69.4114 17.3949C69.4114 13.5489 66.3059 10.4311 62.4754 10.4311C58.6449 10.4311 55.5396 13.5489 55.5396 17.3949Z" fill="black"/>
</g>
<defs>
<clipPath id="clip0_1083_3152">
<rect width="120" height="44.1379" fill="white"/>
</clipPath>
</defs>
</svg>
