<svg width="88" height="120" viewBox="0 0 88 120" fill="none" xmlns="http://www.w3.org/2000/svg">
<path d="M0.0615811 0C0.0615811 0 -0.0769764 84.9864 0.0615811 92.7812C0.200443 100.575 8.50476 104.413 8.50476 104.413L43.4018 120L79.9271 104.413C79.9271 104.413 87.4966 100.135 87.4594 93.0132C87.4211 85.8917 87.4594 0 87.4594 0L0.0615811 0Z" fill="#B19831"/>
<path d="M3.41147 4.57227C3.41147 4.57227 3.28327 83.9758 3.41147 91.1811C3.53998 98.3858 11.1695 101.933 11.1695 101.933L43.4272 116.341L77.1902 101.933C77.1902 101.933 84.1442 97.9786 84.1098 91.3958C84.0745 84.8129 84.1098 4.57227 84.1098 4.57227H3.41147Z" fill="#0E2674"/>
<path d="M71.4191 87.4894C71.6103 82.7108 73.044 42.5657 73.044 42.5657L73.2353 30.4271C73.2353 30.4271 72.6622 22.9718 70.3676 18.5748C68.0742 14.1778 65.4937 13.4135 65.4937 13.4135C65.4937 13.4135 60.3324 10.8326 57.1775 12.7441C54.6923 14.8475 56.7953 19.0523 56.7953 19.0523C56.7953 19.0523 59.0896 21.5375 59.2802 25.3614C59.4718 29.1841 57.3684 28.0372 57.3684 28.0372L54.5964 27.1773C54.5964 27.1773 49.531 26.3167 48.1929 26.3167C46.8545 26.3167 48.3838 25.457 48.3838 25.457C48.3838 25.457 52.5893 24.1186 54.2145 20.7732C55.8394 17.4274 54.7876 14.3694 54.7876 14.3694C54.7876 14.3694 53.7364 9.6855 49.1485 8.34774C44.5602 7.00936 40.2592 9.58988 40.2592 9.58988C40.2592 9.58988 35.6712 13.2219 36.2441 18.766C36.8184 24.3099 40.9279 25.6476 40.9279 25.6476C40.9279 25.6476 40.3545 26.4126 38.0605 26.317C34.9063 27.1776 33.1863 28.5153 33.1863 28.5153C33.1863 28.5153 32.8036 28.7066 31.848 27.2726C30.8924 25.8389 32.2304 22.3028 32.2304 22.3028C32.2304 22.3028 35.5762 18.2883 35.1934 15.9946C34.8116 13.7006 31.657 12.5532 31.657 12.5532C31.657 12.5532 27.7387 11.9801 24.5842 14.274C21.43 16.568 19.9966 20.8691 18.8494 24.6924C17.7026 28.5153 18.0013 39.3045 18.0013 39.3045L17.4157 38.6471L16.4958 39.3399C16.4958 39.3399 16.0658 35.3616 16.5555 33.1036C16.9654 31.2143 17.607 25.1705 17.607 25.1705C17.607 25.1705 18.467 20.1041 17.7982 17.0452C17.1289 13.9869 16.6514 12.7441 16.6514 12.7441L16.2689 15.5162C16.2689 15.5162 15.8864 16.7589 15.4086 15.2296C14.9305 13.7 15.1218 7.10498 15.1218 7.10498L12.8275 10.4505C12.8275 10.4505 10.7251 13.4135 13.0188 19.0526C13.6881 20.9644 11.681 20.8691 11.681 20.8691C11.681 20.8691 12.7319 23.2587 13.1144 25.7433C13.4969 28.2285 12.7319 31.0008 12.445 32.6255C12.1582 34.2501 12.5413 39.3161 12.5413 39.3161L11.2985 39.1249L9.38672 40.5586L11.6926 43.175C11.6926 43.175 10.6889 45.7912 13.9147 48.4082C15.8861 49.7347 18.0845 49.3519 18.0845 49.3519C18.0845 49.3519 19.5182 76.7845 19.6138 84.8123C19.9963 88.4444 19.9007 90.7389 19.0401 93.1279C18.1801 95.5175 16.3639 99.0545 16.3639 99.0545C16.3639 99.0545 22.959 96.4737 24.8708 90.9302C26.7819 85.386 25.7307 81.1806 25.7307 81.1806L24.3927 58.2403L24.9658 64.9319L26.8779 82.8058C26.8779 82.8058 31.083 75.8274 30.414 69.2327C29.7446 62.6376 27.1647 52.6971 27.1647 52.6971L28.9809 59.1015L31.1786 67.9899L32.4214 60.1524C32.4214 60.1524 33.4729 64.2626 33.8551 66.8434C34.2379 69.4242 34.1416 73.9165 34.1416 73.9165L32.4214 89.974C32.4214 89.974 32.7082 96.6646 30.5096 98.4808C28.3116 100.297 28.2159 101.731 28.2159 101.731C28.2159 101.731 31.8477 102.782 35.5759 100.775C39.3033 98.7683 39.3986 99.6282 39.3986 99.6282C39.3986 99.6282 40.9279 100.584 43.604 100.584C46.2805 100.584 47.4279 100.488 47.4279 100.488L47.3323 101.539C47.3323 101.539 46.3767 103.356 49.9128 103.547C50.8687 104.312 51.6337 104.312 52.2065 105.172C53.258 106.701 58.0369 106.032 58.0369 106.032C58.0369 106.032 58.4197 103.547 53.9267 101.539C52.5887 100.393 53.7358 99.4367 53.7358 99.4367C53.7358 99.4367 55.8388 98.003 56.4119 96.4737C56.9857 94.9444 58.4197 91.7902 58.8018 83.0927C59.1843 74.3943 58.515 61.4905 58.515 61.4905L59.3756 66.1744L63.1985 53.1752C63.1985 53.1752 61.5736 59.77 60.4271 67.9899C59.2799 76.2099 63.7719 81.6581 63.7719 81.6581L66.3528 59.4831L64.7278 82.8058C64.7278 82.8058 64.0582 89.3049 66.2571 92.6498C68.4555 95.9956 74.8593 99.0545 74.8593 99.0545C74.8593 99.0545 71.2276 92.2689 71.4191 87.4894Z" fill="black"/>
<path d="M57.3928 89.593C57.3928 89.593 56.1744 97.2627 55.0997 97.7652C54.0238 98.2664 54.096 97.9795 54.096 97.9795C54.096 97.9795 53.881 93.4635 54.0241 91.1695C54.1676 88.8759 54.096 78.4094 54.096 76.4733C54.096 74.538 54.0241 72.4594 53.881 68.6598C53.7376 64.8606 56.6768 54.5376 56.6768 54.5376C56.6768 54.5376 57.6093 58.2659 58.1105 68.8748C58.6118 79.485 57.3928 89.593 57.3928 89.593ZM32.5182 43.14C32.5182 43.14 32.5897 53.1761 32.5182 57.19C32.446 61.2051 34.8834 66.8677 34.8834 66.8677L35.3852 60.9892C35.3852 60.9892 35.8161 55.326 35.6721 49.2325C35.5287 43.14 32.5182 43.14 32.5182 43.14ZM53.0204 31.0483C53.0204 31.0483 55.075 27.9422 52.8773 27.6078C50.6784 27.2725 47.381 26.9385 47.381 26.9385C47.381 26.9385 49.0059 27.321 47.715 28.1334C46.4248 28.9453 44.418 28.8975 44.418 28.8975C44.418 28.8975 41.0247 28.3716 40.26 28.1334C39.4957 27.8938 38.4917 27.7988 38.4917 27.7988C38.4917 27.7988 37.4408 27.5597 35.6243 28.2759C33.8081 28.9931 33.2825 30.6655 33.2825 30.6655L33.9034 31.8605L35.8158 33.6766L41.3113 35.2535L46.8551 38.2168C46.8551 38.2168 47.476 36.2093 47.7629 36.1615C47.1419 35.7312 42.2671 32.3861 42.2671 32.3861L48.6231 34.5841C48.6231 34.5841 49.3397 33.1507 49.6265 32.8639C48.7188 32.4814 43.4621 30.8565 43.4621 30.8565C43.4621 30.8565 47.3329 31.1433 48.7666 31.1433C50.2012 31.1439 53.0204 31.0483 53.0204 31.0483Z" fill="#350D36"/>
<path d="M46.21 90.1659L47.7871 99.413C47.7871 99.413 44.2741 100.346 39.6146 98.4102C38.9693 98.1233 36.3888 97.1196 38.754 93.8217C43.0554 89.7356 46.21 90.1659 46.21 90.1659ZM37.1766 95.9009C37.1766 95.9009 37.1051 95.6138 37.32 94.8257C37.5353 94.0367 36.7469 94.5388 36.7469 94.5388C36.7469 94.5388 35.6001 95.1119 34.6677 95.6138C33.7361 96.1156 33.7721 97.0118 33.7361 97.4781C32.5534 97.8718 30.3313 99.5564 30.1519 99.7723C29.9734 99.9873 29.7572 100.13 29.3994 101.134C29.6504 101.385 31.5856 101.493 31.5856 101.493C31.5856 101.493 32.9833 101.708 33.5933 100.991C34.2017 100.274 35.6001 99.8436 35.6001 99.8436C35.6001 99.8436 37.6069 99.7364 37.4635 97.9796C37.0691 97.0481 37.1766 95.9009 37.1766 95.9009ZM55.3137 102.855L53.1272 101.313C53.1272 101.313 52.0166 100.453 52.0875 98.8399C52.1594 97.2271 52.2313 90.2737 52.2313 90.2737L52.3028 87.3704C52.3028 87.3704 51.2997 88.1228 50.7973 88.3022C50.296 88.4812 48.5393 89.2697 47.858 89.4134C47.1768 89.5565 47.1059 90.2374 47.1059 90.2374L47.2134 91.5993L51.8013 91.0255C51.8013 91.0255 51.9444 91.3124 51.8013 91.3124C50.9769 91.4561 48.0018 93.3557 48.0018 93.3557C48.0018 93.3557 48.0739 95.8647 48.2886 96.4743C48.5039 97.0834 48.468 99.772 48.3246 99.9873C48.1811 100.202 48.038 101.099 48.038 101.099C48.038 101.099 47.7511 102.567 48.8261 102.46C49.9014 102.353 51.3354 103.141 51.3354 103.141L53.7012 104.934C53.7012 104.934 56.3892 106.296 57.4645 105.651C56.7836 103.357 55.3137 102.855 55.3137 102.855ZM53.0913 89.0903L53.4497 58.2656C53.4497 58.2656 53.4497 55.8276 51.5863 54.3221C49.7223 52.8171 46.6396 52.8171 46.6396 52.8171C46.6396 52.8171 41.0477 52.3865 39.1122 52.6737C37.1766 52.9606 36.7469 54.6802 36.7469 54.6802L35.5282 67.9424L34.3095 80.1297L33.3058 90.954L32.733 96.9043C32.733 96.9043 33.808 93.8217 39.3275 91.4564C44.2026 89.2343 49.5789 88.1585 49.5789 88.1585L51.5147 87.8L50.5829 74.9681L49.0058 54.8958L49.507 55.9708L53.0913 89.0903ZM14.9544 48.7314L16.3165 47.2261L13.6642 47.2974L14.9544 48.7314ZM28.8613 62.997L25.7787 47.513L25.6355 45.9359L29.3629 56.6882L31.155 62.997C31.155 62.997 33.019 60.2728 32.0156 55.9714C31.0122 51.6706 29.7213 48.7314 29.7213 48.7314L28.431 43.9997L19.1118 49.0895L19.7573 60.7743L20.4742 75.6855C20.4742 75.6855 20.6892 80.8466 21.0473 87.3707C21.4057 93.8938 18.4665 96.3306 18.4665 96.3306C18.4665 96.3306 23.9147 95.5428 24.7037 87.6575C25.4918 79.7722 24.4884 72.5316 24.4884 72.5316L23.3413 55.9714L23.0544 48.5876L24.9184 59.7706C24.9184 59.7706 26.5677 70.5958 26.7824 71.456C26.9974 72.316 27.3564 78.696 27.3564 78.696C27.3564 78.696 29.2198 75.5424 29.5066 71.2413C29.7938 66.9387 28.8613 62.997 28.8613 62.997ZM17.3915 39.5196C17.3915 39.5196 16.7103 40.3077 15.9222 40.487C15.1332 40.6667 14.3091 40.6667 14.3091 40.6667C14.3091 40.6667 13.6276 40.7017 12.947 40.5586C12.2664 40.4161 11.4774 39.5555 11.4774 39.5555L10.2949 40.738L11.6567 42.2438C11.6567 42.2438 12.087 41.8129 12.5167 41.5623C12.947 41.3114 14.2376 41.3829 14.2376 41.3829L15.1332 41.4548C15.1332 41.4548 16.0656 41.4907 16.4237 41.6701C16.7822 41.8492 17.3912 42.2788 17.3912 42.2788L18.7174 40.9895L17.3915 39.5196ZM18.9686 41.8492C18.9686 41.8492 25.2768 37.5481 26.9974 36.9744C27.213 33.462 28.3592 33.7486 28.3592 33.7486L29.2916 34.3214C29.2916 34.3214 32.7327 30.6656 32.948 30.594C30.7259 28.5866 30.0803 27.3682 30.0803 27.3682C30.0803 27.3682 28.5751 25.0027 30.4391 22.4216C32.3024 19.8407 33.3771 17.6183 33.3771 17.6183C33.3771 17.6183 33.5933 11.9551 29.2919 13.3888C24.9909 14.8228 22.4819 18.1202 22.4819 18.1202C22.4819 18.1202 19.6142 22.7084 19.0405 27.2964C18.4674 31.8846 18.5386 36.9741 18.5386 36.9741L18.9686 41.8492ZM26.5677 43.9281C26.5677 43.9281 32.0515 40.7739 32.5893 40.5951C33.1274 40.4158 35.887 39.3405 36.8188 41.2758C37.7506 43.2119 37.4278 48.2295 37.4278 48.2295L46.8546 48.4089C46.8546 48.4089 46.1731 42.1717 45.6 40.702C45.0269 39.2327 44.5607 37.2256 41.1552 35.1823C37.7506 33.1395 35.3129 31.5983 35.3129 31.5983C35.3129 31.5983 34.0945 30.8812 33.5565 30.5946C33.4849 31.1684 29.9007 34.6807 29.9007 34.6807C29.9007 34.6807 28.6823 35.9713 28.0723 37.2615C27.8939 38.1934 26.818 38.1574 26.818 38.1574C26.818 38.1574 24.7396 38.6946 23.8075 39.2327C22.875 39.7705 20.8685 41.3473 20.8685 41.3473C20.8685 41.3473 22.0869 43.6769 22.2663 43.9997C22.4454 44.3216 22.5888 45.0034 21.9435 44.3216C21.2979 43.641 19.8289 41.7054 19.8289 41.7054L18.1443 42.4226C18.1443 42.4226 19.1833 43.4616 19.1833 45.0034C19.1833 46.5437 18.1443 48.6233 18.1443 48.6233L26.5677 43.9281ZM71.1564 54.2508L72.1601 33.9639C72.1601 33.9639 72.3751 21.92 66.9263 16.6874C62.984 13.461 61.55 13.461 61.55 13.461C61.55 13.461 59.041 12.4579 57.5358 14.9669C56.0305 17.4755 59.3273 21.2038 59.3273 21.2038C59.3273 21.2038 62.9124 24.8596 60.2591 27.9422C59.6138 28.9456 58.5395 30.0209 58.5395 30.0209L58.5614 30.0526C56.9986 28.4258 55.3133 28.6585 55.3133 28.6585C55.3133 28.6585 52.9716 28.4672 50.2957 31.9565C47.619 35.4448 47.0937 42.9007 47.0937 42.9007C47.0937 42.9007 46.7109 50.0691 50.7254 52.7925C54.7399 55.517 58.4201 49.1129 58.4201 49.1129C58.4201 49.1129 62.0521 43.5213 60.9047 35.7788C60.6483 34.0476 60.2262 32.7369 59.7268 31.7418L61.4074 34.1783C61.4074 34.1783 62.4821 33.533 63.0561 34.3932C63.9877 35.4685 63.1993 39.268 63.1993 39.268C63.1993 39.268 62.4108 43.5694 62.0527 45.0034C61.6937 46.4365 60.4747 49.806 60.4747 49.806C60.4747 49.806 59.4719 52.6021 59.2563 53.6052C59.041 54.6083 58.2529 58.3366 58.3248 59.0531C58.3957 59.7703 59.3276 63.2108 59.3276 63.2108C59.3276 63.2108 60.5472 58.9822 61.1915 56.9748C61.8368 54.9671 64.9914 45.8634 64.9914 45.8634L63.4142 54.9671C63.4142 54.9671 62.124 60.8456 61.6937 62.8524C61.2634 64.8601 60.9765 68.9462 61.049 70.9539C61.1203 75.1112 63.2711 78.4804 63.2711 78.4804C63.2711 78.4804 63.2711 75.1828 63.4861 73.5338C63.7011 71.8851 64.8482 65.0032 64.8482 65.0032L67.5006 48.7301L67.0703 59.1966L66.0663 72.3863C66.0663 72.3863 64.7042 83.4981 66.3532 89.7347C68.0022 95.9716 72.1601 96.2581 72.1601 96.2581C72.1601 96.2581 69.938 93.1045 69.6502 90.9534C69.3634 88.8025 69.5796 86.1507 69.5796 86.1507L71.1564 54.2508Z" fill="white"/>
<path d="M12.338 42.8167C13.0186 42.8167 13.6995 42.8526 13.9867 42.8526C14.2732 42.8526 14.202 43.5338 13.9867 43.5338C13.7717 43.5338 12.338 43.5698 12.338 43.5698C12.338 43.5698 11.8002 43.1748 12.338 42.8167ZM15.241 43.8919H12.1224C11.5136 43.8919 12.3017 44.5732 12.3017 44.5732C12.3017 44.5732 14.6673 44.7166 15.241 44.6091C15.8147 44.501 15.456 43.8919 15.241 43.8919ZM15.2769 44.8594C14.8107 44.8953 12.3733 44.8953 12.1945 44.8953C12.0152 44.8953 11.8002 45.5403 12.373 45.5766C12.9467 45.6125 15.1691 45.6125 15.2766 45.6125C15.3844 45.6125 15.7431 44.8244 15.2769 44.8594ZM15.241 45.8987C14.7388 45.8987 12.8036 45.8281 12.6961 45.8281C12.5889 45.8281 12.4811 46.6162 12.8755 46.6162C13.2698 46.6162 14.9904 46.5806 15.2051 46.6162C15.4203 46.6521 15.7428 45.8987 15.241 45.8987ZM17.5353 42.9957C16.9972 42.602 16.5319 42.4229 16.1731 42.4229C15.8147 42.4229 15.2413 42.602 14.4882 42.7814C13.736 42.9607 14.8466 43.462 14.8466 43.462C14.8466 43.462 15.8509 43.4979 16.0656 43.5335C16.2806 43.5695 16.7822 43.677 16.6744 44.0354C16.5669 44.3938 16.5669 44.3585 16.1372 44.8244C15.4207 45.5769 16.1016 46.5809 16.1016 46.5809C16.1016 46.5809 17.2125 47.1181 17.7862 46.4015C18.3593 45.6844 18.1805 44.6453 18.1805 44.6453C18.1805 44.6453 18.0727 43.3901 17.5353 42.9957ZM46.2812 21.7288C46.1378 22.1591 45.4691 25.504 42.267 25.3127C42.1714 25.7908 41.2155 26.6511 41.2155 26.6511L40.6424 27.5111C40.6424 27.5111 40.4033 28.1326 41.5508 28.2282C44.131 28.5629 46.0425 27.7501 46.0425 27.7501L46.6162 27.368C46.6156 27.3683 46.759 21.7288 46.2812 21.7288ZM40.7615 21.586C40.9049 21.896 41.6214 23.9272 42.553 24.1662C43.4848 24.405 43.4848 24.1903 43.9876 23.975C44.4888 23.76 45.2778 23.1628 45.2778 23.1628C45.2778 23.1628 46.2337 22.0397 46.0419 20.4867C45.8516 19.4352 45.755 18.1449 44.8947 17.1409C43.6048 14.871 40.7371 16.6628 40.7371 16.6628C40.7371 16.6628 40.4027 16.8543 39.9243 17.2843C39.4468 17.7146 39.4709 18.7899 39.4709 18.7899C39.4709 18.7899 39.6381 19.8173 40.0924 19.8651C40.3793 19.4827 40.6665 19.2677 40.6665 19.2677C40.6665 19.2677 41.1674 19.0524 41.2874 19.3874C41.4067 19.722 41.6458 20.4145 41.6458 20.4145C41.6458 20.4145 41.7174 20.8926 41.8608 21.5857C42.0045 22.2782 42.5304 21.7282 42.5304 21.7282C42.5304 21.7282 43.0314 21.7282 42.7208 22.0629C42.4101 22.3976 42.5058 22.4454 41.9564 22.3019C41.4071 22.1585 41.598 21.4179 41.598 21.4179C41.598 21.4179 41.2874 20.797 41.2152 20.6298C41.0721 21.0123 40.3552 20.6298 40.3552 20.6298C40.3552 20.6298 40.618 21.2745 40.7615 21.586ZM40.6418 20.3192L40.6662 20.5342C40.6662 20.5342 40.9762 20.5104 41.0952 20.367C41.2149 20.2236 41.0952 19.8889 41.0952 19.8889H40.928C40.928 19.8889 41.0002 20.1042 40.9043 20.2476C40.8087 20.3904 40.6418 20.3192 40.6418 20.3192Z" fill="#FFE0AA"/>
<path d="M48.407 17.1209C48.4 17.127 48.2937 17.0399 48.1707 16.9269C47.2525 16.0865 46.1623 15.6114 45.0344 15.5618L44.8477 15.5532L45.1093 15.471C45.595 15.3181 45.8542 15.2697 46.3039 15.2487C47.2419 15.2049 47.8454 15.5082 48.1701 16.186C48.2769 16.4089 48.4475 17.0832 48.407 17.1209ZM46.7138 16.7668C46.5537 16.726 46.3743 16.6922 46.3155 16.6922C46.2098 16.6922 46.2123 16.697 46.5034 17.0749C46.937 17.6383 47.3076 18.2047 47.4882 18.5808C47.6228 18.8613 47.6499 18.9572 47.6618 19.1926C47.6722 19.3945 47.6929 19.4843 47.7367 19.5181C48.0717 19.7733 48.4115 18.9027 48.2483 18.2081C48.0799 17.4909 47.5312 16.9754 46.7138 16.7668ZM47.0037 18.9477C46.9949 18.9569 47.0305 19.1122 47.0829 19.2934C47.1353 19.4746 47.2038 19.7633 47.2355 19.9347C47.2471 19.9968 47.2562 20.0696 47.2641 20.146C47.2717 20.2474 47.2772 20.3604 47.2818 20.4999C47.2869 20.6528 47.2879 20.812 47.2851 20.9488C47.2778 21.0992 47.2644 21.2308 47.2428 21.3133C47.2148 21.4205 47.1968 21.5079 47.2023 21.5079C47.2589 21.5079 47.5631 21.3465 47.6594 21.2658C47.8698 21.0891 47.9395 20.9037 47.9194 20.5769C47.8996 20.2478 47.7815 19.9591 47.4989 19.548C47.2869 19.241 47.0266 18.9249 47.0037 18.9477ZM41.7903 13.3768L41.8247 13.3723L41.8594 13.3677L41.8549 13.396C41.8527 13.4115 41.8409 13.4453 41.8293 13.4718C41.8174 13.4977 41.808 13.5218 41.808 13.5218C41.808 13.5318 41.8171 13.5202 41.832 13.4913C41.8415 13.4727 41.8735 13.421 41.9024 13.3762C41.9319 13.3314 41.9545 13.294 41.9532 13.2928C41.9505 13.29 41.8859 13.3223 41.8293 13.3546L41.7903 13.3768ZM39.9994 17.025C40.0713 16.9805 40.1252 16.9169 40.1252 16.8758C40.1252 16.8158 40.0978 16.8039 39.9559 16.8039C39.863 16.8039 39.7284 16.7799 39.6571 16.75C39.6072 16.729 39.5679 16.7199 39.5463 16.722C39.5527 16.7205 39.5567 16.7171 39.5627 16.7171H39.5911L39.5615 16.6855C39.5454 16.6681 39.5241 16.6386 39.514 16.6194C39.4985 16.5904 39.4957 16.5889 39.4951 16.609C39.4948 16.6224 39.4979 16.6574 39.5021 16.6873C39.5076 16.725 39.5131 16.7378 39.5216 16.729C39.5238 16.7269 39.5305 16.7269 39.5344 16.7253C39.5311 16.7275 39.5274 16.7293 39.5274 16.7333C39.5274 16.7866 39.5874 16.8962 39.6514 16.9741C39.6322 16.9522 39.6121 16.93 39.5978 16.9084C39.5445 16.8271 39.5359 16.8414 39.5856 16.9282C39.6197 16.9869 39.687 17.0594 39.7302 17.0832C39.7628 17.1011 39.7948 17.0996 39.7655 17.0816C39.7345 17.0621 39.6964 17.0253 39.6605 16.9851C39.6815 17.0095 39.7028 17.0308 39.7223 17.0445C39.8295 17.1194 39.8487 17.1185 39.9994 17.025ZM39.9787 16.7878L39.8572 16.7896L39.9742 16.7972C40.1054 16.8057 40.1276 16.8164 40.1276 16.8733C40.1276 16.9227 40.0768 16.9821 39.9839 17.0408C39.9461 17.0649 39.9215 17.0847 39.93 17.0847C39.9528 17.0847 40.0351 17.0335 40.0905 16.9845C40.131 16.9486 40.1407 16.9318 40.1462 16.8883C40.152 16.8429 40.1492 16.8319 40.1267 16.8106C40.1024 16.7884 40.0883 16.7862 39.9787 16.7878ZM41.7833 13.5629C41.5242 14.0745 41.3829 14.7539 41.3472 15.6623L41.3384 15.883L41.1228 15.6498C40.8914 15.3995 40.7778 15.2204 40.7318 15.0097C40.7571 15.1266 40.8003 15.232 40.8722 15.3431C40.9422 15.4512 41.0281 15.5545 41.2123 15.7515C41.2605 15.8029 41.2964 15.8453 41.2918 15.8453C41.2872 15.8453 41.2273 15.7889 41.1578 15.7198C41.0887 15.6507 41.0129 15.5703 40.9894 15.5414C40.8685 15.3909 40.7626 15.2061 40.7169 15.0639C40.6718 14.9253 40.6654 14.8815 40.6654 14.7277C40.6657 14.6077 40.6679 14.5812 40.6822 14.5233C40.7811 14.1238 41.0887 13.7852 41.6588 13.4487C41.7288 13.4073 41.79 13.3759 41.8004 13.3759C41.8153 13.3759 41.8125 13.379 41.7833 13.3948C41.727 13.4243 41.6043 13.5038 41.4989 13.5784C41.3698 13.6698 41.2687 13.7502 41.1785 13.8272C41.4033 13.6393 41.7934 13.3695 41.8527 13.3695C41.8683 13.3692 41.8372 13.4566 41.7833 13.5629ZM40.7053 14.7508C40.705 14.7082 40.7065 14.668 40.7093 14.6293C40.7068 14.6668 40.7044 14.7048 40.7044 14.7472C40.7044 14.7688 40.7068 14.7871 40.7077 14.8075C40.7068 14.7886 40.7053 14.7706 40.7053 14.7508ZM40.8317 14.2176C40.8268 14.2258 40.8198 14.2337 40.8152 14.2423C40.7686 14.326 40.74 14.4131 40.723 14.513C40.7419 14.4064 40.7769 14.3111 40.8317 14.2176ZM44.493 13.4502C44.1202 13.6028 43.5837 13.8854 43.224 14.1183C42.8007 14.3921 42.2815 14.9061 42.1299 15.2006L42.0291 15.3967C42.0382 15.3851 42.0571 15.3507 42.0964 15.2761C42.1548 15.1635 42.2185 15.0581 42.2331 15.0493C42.2453 15.0416 42.2392 15.0538 42.2048 15.108C42.135 15.217 42.0601 15.3672 42.0312 15.4546C42.0242 15.475 42.0172 15.4917 42.0148 15.4917C42.0123 15.4917 42.0129 15.4381 42.0157 15.3733C42.0291 15.0328 42.0884 14.629 42.1624 14.3702C42.2818 13.9551 42.4341 13.6753 42.6634 13.449C42.7231 13.3902 42.7407 13.3762 42.7575 13.3762C42.759 13.3762 42.759 13.3768 42.7602 13.3768C42.7447 13.3713 42.7581 13.3592 42.8397 13.3043C43.1534 13.0948 43.5316 13.0288 43.9832 13.1046C44.1808 13.1378 44.3873 13.199 44.5886 13.2839C44.6927 13.3275 44.7743 13.368 44.7606 13.3686C44.7341 13.3698 44.2713 13.5595 44.1699 13.6104C44.1473 13.622 44.1251 13.6308 44.1202 13.6302C44.1153 13.6299 44.1528 13.6095 44.203 13.5848C44.2536 13.5598 44.3523 13.5151 44.4226 13.4855C44.581 13.4179 44.6355 13.3917 44.6483 13.3674C44.6339 13.3896 44.5803 13.4143 44.493 13.4502ZM42.1932 14.3729C42.1701 14.4536 42.146 14.5325 42.1271 14.6211C42.0884 14.8026 42.0556 15.034 42.0345 15.2719C42.03 15.3209 42.0251 15.3717 42.0227 15.3851C42.0208 15.3979 42.0221 15.4016 42.0254 15.3998L42.0482 15.1613C42.0769 14.8672 42.1262 14.6059 42.1932 14.3729ZM42.8869 13.3077C42.8641 13.3223 42.8379 13.3336 42.8166 13.3497C42.7913 13.3689 42.7721 13.3783 42.763 13.3771C42.7724 13.3796 42.7611 13.3917 42.6987 13.4517C42.6932 13.4572 42.6887 13.4642 42.6832 13.4697C42.7468 13.4076 42.815 13.3543 42.8869 13.3077ZM43.5794 13.1049C43.4305 13.1061 43.376 13.1131 43.2581 13.1429C43.2316 13.1496 43.2073 13.1621 43.1814 13.1704C43.2618 13.1445 43.3449 13.1238 43.4332 13.1131C43.4801 13.1073 43.5301 13.1064 43.5794 13.1049ZM44.3623 13.2209C44.5849 13.2952 44.6714 13.3287 44.648 13.3668C44.6522 13.3585 44.6516 13.3506 44.6489 13.3412C44.6382 13.3068 44.3517 13.2039 44.1254 13.153C43.9673 13.1177 43.8848 13.1076 43.7298 13.1052C43.9369 13.114 44.154 13.1515 44.3623 13.2209ZM40.8573 16.2415C40.842 16.2817 40.8277 16.2981 40.7985 16.3103C40.7693 16.3225 40.7559 16.327 40.7556 16.3228C40.758 16.3337 40.6478 16.3724 40.5518 16.394C40.5034 16.405 40.289 16.4144 40.2513 16.4071C40.2418 16.4053 40.2098 16.3977 40.1812 16.3895C39.8642 16.3045 39.6635 15.9409 39.6623 15.4491C39.662 15.2231 39.6961 15.0553 39.7598 14.9716L39.779 14.9466L39.8146 15.0051C39.8621 15.084 39.863 15.0916 39.8219 15.0474C39.8012 15.0255 39.7811 15.0103 39.7722 15.0103C39.7668 15.0103 39.7625 15.0148 39.7576 15.0176C39.7878 15.0017 39.831 15.0532 39.9008 15.1668C40.0893 15.4732 40.2641 15.6705 40.5643 15.9159C40.7686 16.0828 40.8344 16.1583 40.8271 16.2174C40.8305 16.1866 40.8174 16.1535 40.7836 16.1105C40.7586 16.0791 40.7147 16.0341 40.6852 16.0103C40.6115 15.9494 40.6286 15.9461 40.7096 16.0048C40.8618 16.1154 40.8886 16.1586 40.8573 16.2415ZM39.6952 15.6211C39.6833 15.5234 39.6803 15.422 39.6897 15.3194C39.6989 15.2219 39.708 15.1501 39.719 15.1001C39.7104 15.1339 39.7028 15.175 39.6964 15.235C39.6788 15.3906 39.6769 15.4494 39.6849 15.5529C39.687 15.5764 39.6925 15.598 39.6952 15.6211ZM39.9848 16.2542C39.9665 16.2381 39.9495 16.2198 39.9327 16.201C39.9449 16.2144 39.955 16.2308 39.9678 16.243C39.9729 16.2482 39.9796 16.2497 39.9848 16.2542ZM40.3256 16.3873C40.3712 16.3904 40.4242 16.3873 40.4772 16.3825C40.4203 16.3876 40.3615 16.3879 40.3049 16.3831C40.3125 16.3837 40.3176 16.3867 40.3256 16.3873ZM40.8259 16.2214C40.811 16.3051 40.6593 16.3642 40.4879 16.3812C40.5826 16.3712 40.6755 16.352 40.7245 16.327C40.7467 16.3155 40.7525 16.3148 40.7556 16.3228C40.7559 16.3188 40.7656 16.3078 40.7869 16.2877C40.811 16.2652 40.8222 16.2439 40.8259 16.2214ZM41.3594 15.5231C41.3375 15.9272 41.3381 15.8846 41.3564 15.8973C41.3652 15.9034 41.3743 15.9089 41.3743 15.9089C41.3753 15.9089 41.3756 15.8014 41.3753 15.6699C41.3753 15.5386 41.3768 15.3818 41.3789 15.3215C41.3844 15.1522 41.3722 15.2804 41.3594 15.5231ZM44.5922 14.6589C44.7698 14.6385 45.0484 14.6235 45.2771 14.6238C45.8496 14.6241 46.2625 14.6921 46.7568 14.8662C46.9328 14.9287 47.0829 14.9728 47.0911 14.9652C47.1289 14.9268 46.7979 14.4445 46.5841 14.2261C46.177 13.8111 45.6876 13.6576 45.1599 13.7794C44.651 13.8969 43.9399 14.337 43.4664 14.8276C43.3434 14.9552 43.2761 15.0462 43.3169 15.0298C43.6059 14.9147 44.1482 14.7475 44.418 14.6878C44.4762 14.6774 44.5341 14.6677 44.5922 14.6589Z" fill="#592314"/>
<path d="M54.7949 97.6107C54.4556 97.7407 54.181 97.7136 54.1843 97.5498C54.188 97.386 54.4565 96.4883 54.7821 95.5546C56.2021 91.4795 57.3102 71.1703 56.2477 68.6973C56.0191 68.1652 55.8817 69.5064 55.8628 72.4517C55.836 76.6687 54.7796 89.6697 54.3856 90.6305C54.2924 90.8582 54.2592 84.9922 54.3119 77.5948C54.4017 64.9751 54.469 63.8943 55.4027 60.0878C56.0014 57.6443 56.5209 56.2517 56.7076 56.5864C56.879 56.8918 57.2441 59.9279 57.5191 63.3334C58.6389 77.1822 57.0849 96.7322 54.7949 97.6107ZM35.9151 51.9382C35.9054 51.6827 35.8853 51.4327 35.8527 51.2186C35.7738 50.6979 35.7053 50.8952 35.6825 51.6236C35.6158 51.6903 35.5765 51.8913 35.5884 52.1787C35.5987 52.4315 35.631 52.5758 35.6782 52.6112C35.6949 53.4118 35.7635 53.7208 35.8469 53.2881C35.909 52.9669 35.9328 52.4778 35.9178 52.0021C35.9178 51.9802 35.9166 51.9592 35.9151 51.9382ZM33.848 44.3531L32.6211 43.0394L32.8017 51.937C32.9427 58.8953 33.14 61.3287 33.7073 63.1023C34.3261 65.0381 34.4805 65.2391 34.7628 64.4766C35.257 63.1412 35.7153 50.7956 35.3728 48.0534C35.1447 46.2287 34.7859 45.3581 33.848 44.3531ZM48.3847 27.6108C48.3847 28.4029 45.4272 29.2175 43.4874 28.9595C42.0729 28.7717 41.7227 28.8201 42.1773 29.1401C42.6694 29.487 42.5333 29.5783 41.5174 29.5835C40.7369 29.5875 39.9305 29.2516 39.4527 28.7241C38.8483 28.056 38.3513 27.9099 37.2757 28.0843C34.676 28.5061 32.9107 30.3631 34.5213 30.9813C34.8627 31.1119 35.1422 31.044 35.1422 30.8293C35.1422 30.6146 36.1051 31.0068 37.2818 31.7009C38.4585 32.3946 40.8794 33.6955 42.6615 34.5914C46.0785 36.3092 46.6395 36.7934 44.7636 36.4057C43.7167 36.1889 43.7413 36.2367 45.0742 37.0011C45.8709 37.4581 46.5627 37.8397 46.6115 37.8492C46.6605 37.8586 46.8953 37.5023 47.1334 37.0577C47.5134 36.3476 47.2488 36.0345 44.9756 34.5022C43.5504 33.542 42.2909 32.636 42.1773 32.4896C42.0634 32.3431 41.1322 31.8217 40.1081 31.3318C38.4862 30.5559 36.8771 28.9589 37.2949 28.5405C37.3729 28.4629 38.3635 29.0055 39.4966 29.7467C40.6294 30.4882 42.7672 31.622 44.2465 32.267C45.7256 32.9116 47.0518 33.6157 47.1931 33.8319C47.5262 34.3417 48.8905 34.0752 49.0957 33.4598C49.1874 33.1845 47.983 32.545 46.2329 31.9408L43.2118 30.8972L47.1434 30.8479C50.833 30.8013 51.1595 30.7258 52.4537 29.6188C53.3463 28.8551 53.6666 28.3371 53.3612 28.1486C52.5843 27.6678 48.3847 27.2146 48.3847 27.6108Z" fill="#7F1416"/>
<path d="M54.8221 30.7471L57.8767 31.2721L56.6355 38.8589L60.5483 39.4795L60.0233 43.0102L56.063 42.3905L54.9174 50.5023L51.7677 50.073L52.8655 41.9605L48.4277 41.1017L49.0483 37.618L53.6768 38.3339L54.8221 30.7471Z" fill="black"/>
<path d="M20.7402 34.8837C20.7402 34.8837 21.1699 29.3006 22.244 26.6519C23.3174 24.0034 25.3212 21.6419 26.9674 19.9238C28.6134 18.2059 28.9712 20.5684 28.6133 21.4266C27.6115 21.6419 28.3274 21.3556 25.2499 23.4312C22.1721 25.5072 20.7402 34.8837 20.7402 34.8837ZM61.7539 21.4984C61.7539 21.4984 64.187 21.8569 66.5498 25.0778C68.9114 28.2984 69.6273 35.0981 69.6273 35.0981C69.6273 35.0981 69.1973 28.1556 67.9095 25.8647C66.6211 23.5744 64.6889 21.3556 64.6889 21.3556C64.6889 21.3556 63.9729 20.5684 63.0423 19.8525C62.1117 19.1366 61.6817 19.7094 61.6108 19.9956C61.5392 20.2819 61.7539 21.4984 61.7539 21.4984Z" fill="black"/>
<path d="M40.8008 25.3238C40.9531 25.417 41.0934 25.4943 41.112 25.4955C41.179 25.4986 41.1449 24.6748 41.0566 24.1587C40.8906 23.1873 40.5828 22.3973 40.1503 21.8321C39.5477 21.0446 39.1932 20.4925 38.6749 19.5342C38.5138 19.2358 37.6673 17.4692 37.8405 16.7627C39.0248 11.937 44.8421 10.6677 48.7035 14.392C50.9216 16.5316 50.6159 18.8722 50.6159 18.8722C50.5723 19.5315 50.4883 19.9873 50.3202 20.4673C50.0251 21.3123 49.4261 22.1114 48.6873 22.6461L48.4751 22.7999L48.4571 23.1538C48.4455 23.3779 48.4065 23.5743 48.3508 23.6903C48.2314 23.9361 47.88 24.282 47.6723 24.3572C47.5795 24.3904 47.5125 24.4395 47.524 24.4659C47.6352 24.7245 47.6559 24.8798 47.6087 25.1012C47.5813 25.2312 47.5441 25.3734 47.5265 25.4179C47.4991 25.4876 47.5502 25.4791 47.9001 25.357C49.134 24.9273 50.3899 24.1456 51.3869 23.1873C52.1969 22.4086 52.704 21.7161 53.1534 20.7754C53.789 19.4435 54.0804 17.9135 53.9565 16.5551C53.8974 15.9098 53.6845 14.9377 53.4753 14.3589C52.7225 12.2762 51.2066 10.6068 49.1749 9.62292C47.1413 8.63871 45.1293 8.48767 43.068 9.16523C41.8328 9.57146 40.577 10.3145 39.6686 11.1775C39.1159 11.7022 38.4301 12.7132 37.8981 13.787C37.0217 15.5556 36.6703 17.0819 36.7205 18.9002C36.744 19.7318 36.807 20.1177 37.036 20.8315C37.5908 22.5599 38.9615 24.1955 40.8008 25.3238Z" fill="#B49900"/>
<path d="M49.0866 51.1824L49.3911 51.6069L49.3135 51.8106C49.2705 51.9226 49.2096 52.0362 49.1773 52.0627C49.1088 52.1197 47.9784 52.1605 47.7181 52.1154C47.5591 52.088 47.5247 52.0575 47.4233 51.8556C47.3152 51.64 47.3058 51.5651 47.2665 50.556C47.2202 49.372 47.2339 49.2654 47.4656 48.9852C47.5777 48.8494 47.6392 48.8135 47.7604 48.8135C47.9044 48.8135 47.9178 48.8272 47.9903 49.0537C48.1325 49.4974 48.7796 50.7539 49.0866 51.1824ZM41.2689 48.9511H40.5271H39.7853L39.6437 49.1229C39.566 49.217 39.4826 49.3647 39.4588 49.4502C39.4077 49.6366 39.4457 51.2962 39.5094 51.6324C39.5347 51.7655 39.6138 51.9479 39.6936 52.0566L39.8337 52.247L40.595 52.2345L41.3569 52.2223L41.4574 52.0116C41.5893 51.736 41.6541 51.1921 41.6541 50.3623C41.6541 49.6442 41.6377 49.5644 41.4136 49.1917L41.2689 48.9511ZM46.5801 49.0333L46.4857 48.9051H45.77C45.0858 48.9051 45.0508 48.9097 44.964 49.0081C44.6713 49.3388 44.6555 49.4487 44.71 50.735C44.752 51.7253 44.774 51.8447 44.9597 52.1185L45.045 52.2442L45.7853 52.2436C46.1924 52.2433 46.5505 52.2272 46.5807 52.2077C46.7881 52.0761 46.9108 51.3474 46.9129 50.2417C46.9141 49.6756 46.9059 49.6177 46.7945 49.3975C46.7287 49.2678 46.6322 49.1037 46.5801 49.0333ZM43.8844 48.903L43.1256 48.9155L42.3667 48.928L42.2275 49.1268L42.0884 49.3257L42.0908 50.3851C42.0936 51.556 42.1261 51.7646 42.3478 52.0338L42.4839 52.1985H43.209C43.928 52.1985 43.9353 52.1979 44.0242 52.0847C44.1719 51.8968 44.2535 51.4098 44.2825 50.5447C44.3123 49.6473 44.2934 49.5404 44.0331 49.1347L43.8844 48.903ZM37.9018 48.9155L37.1579 48.928L37.0236 49.0939C36.9499 49.1853 36.8716 49.3373 36.8503 49.4317C36.8293 49.5261 36.8284 50.0687 36.8488 50.6379C36.8871 51.6997 36.9237 51.9044 37.1137 52.1185C37.1761 52.1888 37.2788 52.1982 37.9542 52.1982C38.7207 52.1982 38.724 52.1979 38.7974 52.0862C38.9689 51.8246 39.0112 51.552 39.0346 50.5684L39.0572 49.6016L38.9125 49.333C38.6613 48.8668 38.745 48.9012 37.9018 48.9155Z" fill="#B49900"/>
<path d="M17.63 18.0284C17.5319 17.2836 17.5018 17.2117 17.418 16.8274C17.3108 16.3353 17.1418 15.7552 17.1135 15.7835C17.1019 15.795 17.0325 15.9835 16.9585 16.2025C16.7073 16.9504 16.4037 17.3642 16.1052 17.3646C15.9886 17.3649 15.7544 17.2574 15.6204 17.1419C15.5483 17.0801 15.2916 16.7683 15.089 16.3621C14.7297 15.6425 14.4471 14.6369 14.3031 13.5681C14.2282 13.0108 14.2297 11.1167 14.3055 10.578C14.3369 10.3551 14.3548 10.1644 14.3448 10.155C14.3354 10.1449 14.2547 10.2451 14.1657 10.3773C13.5351 11.3167 13.1176 12.3287 12.8864 13.4785C12.7969 13.9225 12.7808 14.1455 12.7802 14.9403L12.7792 15.8779L13.3265 18.632C13.6273 20.1467 14.0174 21.5292 13.8198 21.9345L13.2695 21.6936C12.9455 21.5517 12.6672 21.436 12.651 21.436C12.6349 21.436 12.6955 21.5825 12.7856 21.7615C13.028 22.2427 13.2978 22.866 13.476 23.3572C13.6008 23.7017 13.7647 24.2602 13.8509 24.6146C14.1383 26.6108 13.416 33.0858 13.2586 34.4504C13.1313 35.5509 13.116 35.8052 13.1371 36.4861C13.1687 37.5072 13.3091 38.221 13.6812 39.2533C13.7586 39.4674 13.881 39.7606 13.9532 39.9053C14.0253 40.0499 14.0936 40.1684 14.1039 40.1684C14.1338 40.1684 15.9776 39.2006 16.0181 39.1635C16.0385 39.1452 16.023 38.8133 15.984 38.4259C15.8266 36.8473 15.7855 35.3968 15.8701 34.373C15.9865 32.9613 16.4487 29.6371 16.6908 28.4744C16.943 27.2615 17.4747 23.8338 17.651 22.2829C17.7908 21.0517 17.7816 19.1859 17.63 18.0284Z" fill="#B49900"/>
<path d="M54.9874 31.373L57.081 31.7001L56.02 39.2629L60.3232 39.9916L60.0763 42.172L55.6695 41.4147L54.3784 49.4008L52.2086 49.2101L53.4499 41.2697L49.2861 40.4932L49.5203 38.3506L53.7693 38.8944L54.9874 31.373Z" fill="#B49900"/>
<path d="M42.4054 23.1225C42.3338 23.2893 42.7632 23.2656 42.7632 23.2656C42.7632 23.2656 43.1451 23.0034 43.3841 22.8125C43.6229 22.6215 43.9091 22.6215 43.9091 22.6215C43.9091 22.6215 43.6704 22.3112 43.2885 22.3828C42.9063 22.454 42.2866 22.7406 42.2866 22.7406C42.2866 22.7406 41.8804 23.2656 42.4054 23.1225Z" fill="black"/>
<path d="M44.719 18.5655C44.5521 18.3983 44.1699 18.1836 43.8124 18.1358C43.4543 18.088 42.8818 18.2549 42.5946 18.398C42.3087 18.5411 42.2371 18.4933 41.903 18.732C41.5693 18.9702 41.8552 19.2567 41.8552 19.2567C41.8552 19.2567 42.4518 20.0439 43.3581 19.8298C44.2652 19.6145 44.2652 18.923 44.2652 18.923H44.7902C44.7908 18.923 44.8858 18.732 44.719 18.5655ZM43.6693 19.3999C43.4543 19.543 42.9055 19.543 42.9055 19.543V19.3521C42.9055 19.3521 43.2874 19.3999 43.5021 19.233C43.7168 19.0658 43.7646 18.8274 43.7646 18.8274L43.9555 18.8036C43.9555 18.8036 43.8837 19.2567 43.6693 19.3999Z" fill="black"/>
<path d="M39.2814 28.1156C39.1921 27.9329 39.0749 27.6143 39.091 27.5982C39.0956 27.5936 39.8051 28.0154 40.6678 28.5355C41.5306 29.0556 42.2486 29.4884 42.2644 29.4972C42.2949 29.5148 42.294 29.5148 42.0735 29.5048C41.6819 29.4868 41.1307 29.4116 40.8073 29.3318C40.4659 29.2478 40.1462 29.111 39.9586 28.9697C39.6894 28.7669 39.4537 28.4697 39.2814 28.1156ZM47.0278 33.7651C42.2367 31.6581 40.8298 31.3003 37.4134 28.5949C37.7231 28.9393 37.0139 30.8815 47.0278 33.7651ZM45.6891 36.341C45.7043 36.3556 45.6303 36.338 45.3298 36.2554C44.1035 35.918 42.7736 35.4841 41.7227 35.0772C39.6815 34.2867 38.2167 33.4456 36.7084 32.1971C36.3799 31.9251 35.8731 31.4629 35.5841 31.1711L35.4298 31.0143L35.3204 30.8943C35.2604 30.8282 35.2157 30.7743 35.2212 30.7743C35.2343 30.7743 36.6804 31.6237 36.6804 31.6237C37.252 31.9586 38.1068 32.4562 38.5794 32.7291C38.7463 32.8256 38.9013 32.9154 39.0329 32.9925C40.3015 33.6825 42.5209 34.8979 42.5318 34.8939C42.541 34.8909 44.1845 35.6552 44.9196 35.9893C45.3398 36.179 45.6861 36.338 45.6891 36.341ZM36.2858 31.5762C36.2745 31.574 36.2687 31.5755 36.2654 31.5789C36.2648 31.5795 36.266 31.5807 36.2654 31.5813C36.2699 31.5783 36.2772 31.5771 36.2858 31.5762ZM56.1702 68.4711C56.3885 79.2817 54.2669 96.9491 53.6314 97.1626C55.0815 97.4769 57.6928 78.165 56.1702 68.4711Z" fill="#A81F23"/>
</svg>
